<?xml version="1.0" encoding="UTF-8" standalone="no"?>
<svg
   version="1.1"
   x="0px"
   y="0px"
   viewBox="0 0 100 125"
   enable-background="new 0 0 100 100"
   xml:space="preserve"
   id="svg2"
   sodipodi:docname="coral1.svg"
   inkscape:version="1.4.2 (ebf0e940d0, 2025-05-08)"
   xmlns:inkscape="http://www.inkscape.org/namespaces/inkscape"
   xmlns:sodipodi="http://sodipodi.sourceforge.net/DTD/sodipodi-0.dtd"
   xmlns="http://www.w3.org/2000/svg"
   xmlns:svg="http://www.w3.org/2000/svg"><defs
     id="defs2" /><sodipodi:namedview
     id="namedview2"
     pagecolor="#ffffff"
     bordercolor="#000000"
     borderopacity="0.25"
     inkscape:showpageshadow="2"
     inkscape:pageopacity="0.0"
     inkscape:pagecheckerboard="0"
     inkscape:deskcolor="#d1d1d1"
     inkscape:zoom="3.232"
     inkscape:cx="50.123762"
     inkscape:cy="62.5"
     inkscape:window-width="1029"
     inkscape:window-height="607"
     inkscape:window-x="0"
     inkscape:window-y="0"
     inkscape:window-maximized="1"
     inkscape:current-layer="svg2" /><path
     d="M76.6,71.6c-0.1,0.2-0.1,0.4,0,0.5c0,0,0.1,0.1,0.2,0.1c1.1,0.3,2.1,0.3,3.2,0.2c3.7-0.3,7.3-1.3,10.7-2.8  c0.2-0.1,0.4-0.2,0.6-0.2c0.5,0,0.5,0.3,0.1,0.9c-2.4,3.1-5.5,4.8-9.5,5.1c-3.4,0.3-6.9,0.2-10.7-0.3c-3.2-0.4-6.1,0.4-8.7,2.2  c-5.7,4-8.1,9.6-7,16.8c0.1,0.4-0.2,0.8-0.7,0.9c0,0,0,0,0,0c-2.9,0.4-5.8,0.6-8.9,0.6c0,0-0.3,0-0.8,0.1c-0.6,0.1-0.8-0.3-0.5-0.9  c1-6.7-1.1-12.2-6.2-16.4c-1.5-1.2-3-2.4-4.5-3.6c-1.8-1.3-3-3.3-3.8-5.9c-1-3.3-2.8-6.9-5.5-10.6c-0.7-0.9-1.5-1.8-2.4-2.6  c-1.4-1.2-2.3-1.9-2.8-2.1c-1.6-0.6-2.7-0.9-3.5-0.9c-4.5-0.1-7.3-2.2-8.3-6.4c0-0.2,0.1-0.3,0.2-0.3c0,0,0,0,0,0  c0.9-0.2,1.7-0.2,2.5,0.1c0.5,0.2,1,0.6,1.5,1.4c0.9,1.3,2.3,2.1,3.9,2.5c1.3,0.2,2.5,0.5,3.8,0.6c0.7,0.1,0.8-0.1,0.4-0.7  c-1.2-1.7-2.3-3.5-3.4-5.3c-0.8-1.4-1.3-2.9-1.5-4.5c-0.1-1-0.2-1.8-0.4-2.3c-0.3-0.9-0.6-1.6-1-2.1c-2.3-3.1-3.4-6.6-3.4-10.6  c0.2-0.9,0.4-1.8,0.8-2.7c0.1-0.3,0.3-0.5,0.5-0.6c0.4-0.3,0.7-0.1,0.8,0.6c0.5,4,1.7,7.9,3.5,11.7c0.2,0.4,0.3,0.3,0.5,0l1.1-2.8  c0.3-0.7,0.3-1.4,0-2.1c-2.1-5.1-1.6-9.7,1.6-13.8c0.1-0.1,0.3-0.2,0.4-0.1c0.3,0.2,0.5,0.5,0.6,0.9c0.1,0.5,0.1,1.1-0.3,1.8  c-0.2,0.4-0.6,1.6-1.1,3.6c-0.6,2.2-0.4,4.2,0.6,6.2c0.1,0.1,0.2,0.2,0.4,0.1c0,0,0,0,0,0c1.9-1,3.4-2.4,4.5-4.1  c0.3-0.5,0.9-1.8,1.6-3.8c0.7-1.9,1.7-3.6,2.9-5.2c0.8-1,1.2-0.9,1.1,0.3c0,0.2-0.1,0.5-0.1,0.8c-0.5,2.1-1.1,4.3-1.6,6.4  c-0.3,1.2-1,2.2-2,3.2c-1.4,1.3-2.7,2.5-4.1,3.8c-0.8,0.8-1.5,1.9-1.9,3.5c-0.4,1.3-0.7,2.5-0.9,3.8c-0.7,3.5,0.1,6.7,2.3,9.6  c0.4,0.5,0.7,0.5,1-0.1c1-2.7,1.7-5.5,2.1-8.4c0.1-0.9,0.3-1.6,0.5-2.1c0.3-0.7,0.7-1.3,1.2-1.9c0.7-0.9,1.5-1.7,2.2-2.6  c0.9-1.1,1.5-2.1,1.7-2.9c0.3-1,0.5-2,0.4-3.1c-0.1-1.3-0.1-2.1-0.1-2.3c0.1-0.8,0.3-1.5,0.7-2.2c0.3-0.5,0.5-0.5,0.8,0  c2.2,4.5,1.9,8.6-1.1,12.1c-1.6,1.9-2.4,2.9-2.4,2.9c-0.9,1.6-1,3.3-0.5,5.3c0.1,0.4,0.5,0.6,0.9,0.5c0.1,0,0.1,0,0.2-0.1  c1.8-1,3.3-2.5,4.5-4.5c1.6-2.6,3-5.2,4.4-7.8c0.5-0.9,0.7-1.8,0.9-2.6c0.1-0.9,0.2-1.8,0.1-2.7c-0.3-5.1,0.3-10,1.7-14.9  c0.8-1.6,1.8-2.9,3.2-4c0.3-0.2,0.5-0.3,0.7-0.4c0.5-0.1,0.7,0.1,0.6,0.6c0,0.2-0.1,0.4-0.3,0.6c-1.5,2.1-2.4,4.7-2.6,7.8  c0,0.4,0.1,0.5,0.4,0.2c3-2.7,6-5.3,8.8-8c0.6-0.5,1.3-0.7,2-0.4c0.7,0.2,0.8,0.9,0.3,1.4c-1.9,2.2-4.1,4.2-6.5,5.9  c-0.7,0.5-1.6,1.4-2.9,2.6c-1.1,1.1-1.9,2.2-2.3,3.1c-0.8,1.9-0.8,4-0.2,6.1c0.1,0.2,0.3,0.4,0.6,0.3c0,0,0,0,0,0  c1.1-0.4,1.8-1.2,2.3-2.2c0.6-1.6,1.6-3,2.8-4.2c0.3-0.3,1.4-1,3.1-2c0.9-0.5,1.7-1.2,2.5-1.9c0.4-0.4,1-1.3,1.8-2.5  c1.5-2.5,3.5-4.3,5.9-5.5c0.5-0.3,0.7-0.2,0.4,0.4l-5,9.2c-0.4,0.7-0.9,1.2-1.7,1.4c-0.8,0.3-1.7,0.6-2.9,1.1  c-2.1,0.9-3.5,2.3-4,4.5c-0.2,1,0.1,1.4,1.1,1.2c3.3-0.5,6.3-1.7,8.7-3.7c1.5-1.2,2.8-2.4,3.9-3.6c1.2-1.4,2-3,2.5-4.8  c0.3-1.1,0.7-1.9,1.3-2.4c0.1-0.1,0.3-0.2,0.5-0.2c0.9,0,1.3,0.5,1.1,1.6c-0.4,3.5-1.9,6.5-4.4,9c-3.1,2.8-7.2,5-12.3,6.6  c-2.8,0.9-5.4,2.5-7.6,4.5c-2.3,2.1-3.2,4.8-5,7.3c-1.1,1.4-2.3,2.7-3.8,3.7c-1.1,0.7-2.4,1.2-3.4,2.2c-1.3,1.3-2.1,2.8-2.3,4.6  c-0.7,5.2,0.2,10.1,2.7,14.7c0.1,0.1,0.2,0.1,0.3,0.1c0,0,0,0,0.1,0c2-2.4,2.7-5,2.3-7.9c-0.5-3.7,0.6-6.7,3.5-9.1  c0.6-0.5,0.9-0.3,0.9,0.4c0.1,1.3-0.2,2.6-0.7,3.9c-0.7,1.6-0.9,3.2-0.6,4.8c0,0.1,0.1,0.2,0.3,0.2c0,0,0,0,0,0  c2.7-0.9,4.9-2.4,6.6-4.5c0.6-0.7,0.8-1.5,0.7-2.3c-0.1-1.7-0.2-3.1-0.4-4.3c-0.2-2.3,0.4-4.3,1.8-6.1c0.7-0.9,1.5-1.7,2.3-2.5  c0.1-0.1,0.3-0.2,0.4-0.1c0.1,0.1,0.1,0.2,0,0.4c-1.4,3.5-2.1,7.3-1.9,11.4c0,1,0.5,1.2,1.4,0.8c3-1.6,4.4-4.5,4.2-8.6  c-0.1-1.3,0.4-1.4,1.4-0.4c0.3,0.4,0.6,0.8,0.7,1.2c0.8,2.9,0,5.5-2.4,7.8c-1.5,1.4-4.6,4.1-9.2,7.9c-2.1,1.8-3.6,3.3-4.2,4.5  c-1.5,2.7-1.7,5.6-0.6,8.6c0.4,1.2,1.1,2.4,2,3.6c0.8,1.1,1.8,2.2,2.7,3.1c2,2,3.4,4.4,4.2,7.1c0.1,0.2,0.2,0.4,0.3,0.3  c0.1,0,0.2-0.2,0.3-0.4c0.4-4.2-0.3-8.2-2.2-11.9c-0.8-1.7-1.5-3.2-1.9-4.5c-0.6-1.7-0.2-3.2,1.2-4.4c0.1-0.1,0.2-0.1,0.2,0  c0,0,0,0,0,0.1l2,6.7c0.1,0.4,0.3,0.4,0.5,0c1.2-2.9,1.4-5.8,0.6-8.8c-0.2-0.9,0-1.5,0.8-1.8c0.2-0.1,0.4,0,0.5,0.1  c1.5,2,2.3,4.2,2.2,6.7c0,0.9-0.5,2.8-1.4,5.6c-0.6,1.9-0.3,4.1,0.9,6.5c0.2,0.5,0.5,0.6,0.8,0.4c0.2-0.1,0.3-0.3,0.3-0.6  c0.7-3,1.8-5.6,3.1-7.6c0.8-1.2,1.1-2.5,1-3.7c-0.1-0.7-0.6-1.8-1.5-3.2c-1-1.7-1.7-3.2-1.9-4.5c-0.3-1.7,0.2-3.2,1.5-4.5  c0.5-0.5,0.8-0.4,0.9,0.3c0.1,1.1,0.2,2.3,0.3,3.5c0.1,1,0.3,1.8,0.5,2.4c0.3,0.8,0.8,1.6,1.3,2.2c1.2,1.5,1.9,3,1.9,4.7  c0,0.9-0.4,2.3-1.3,4.4c-0.6,1.4-1.2,2.9-1.6,4.4c-0.5,1.4-0.1,1.7,1.1,0.7c1.6-1.4,3.1-2.9,4.5-4.8c0.6-0.8,1-1.8,1.1-3  c0.1-0.9,0.4-2.9,0.9-5.9c0.4-2.5-0.3-4.3-2.2-5.6c-0.8-0.5-1.2-0.8-1.2-0.8c-1.8-1.5-2.9-3.3-3.3-5.6c-0.4-2,0.2-3.7,1.7-5.1  c0.1-0.1,0.2-0.1,0.2,0.1C58,50,59,52.8,61.7,55c0.5,0.4,0.9,0.8,1.4,1.2c0,0,0.5,0.4,1.3,1.2c2,1.8,2.6,4,1.7,6.8  c-0.6,2-0.8,4.1-0.5,6.2c0,0.2,0.3,0.4,0.5,0.4c0.1,0,0.1,0,0.2-0.1c1.7-1,2.9-2.4,3.6-4.1c0.6-1.4,0.9-3.1,0.9-5.1  c0-1.4-0.1-2.8-0.5-4.1c-0.2-0.8-0.9-2-1.9-3.6c-1.3-2.1-2.3-4.3-3-6.7c-0.3-1.1-0.7-1.9-1.1-2.5c-0.6-0.8-1.1-1.5-1.8-2.1  c-1.1-1-1.8-2.2-2.1-3.5c-0.9-4.2,0-7.3,2.6-9.4c1-0.8,1.4-0.6,1,0.7c-0.7,2.4-1.2,4.5-1.4,6.4c-0.2,1.7,0.4,3.1,1.7,4.1  c1.8,1.4,3,3.2,3.4,5.4c0.5,2.5,1.7,4.8,3.4,6.7c0.1,0.1,0.2,0.1,0.3,0c0,0,0,0,0.1-0.1c0.7-1.5,1.1-3,1.2-4.5c0-0.7,0.1-2.2,0-4.6  c0-2.1-0.3-4.1-0.7-6.1c0,0-0.5-1.5-1.5-4.4c-1.4-3.9-1.3-7.8,0.2-11.9l1.1-2.6c0.1-0.2,0.2-0.3,0.4-0.4c0.4-0.2,0.6,0.1,0.5,0.8  c-0.3,2-0.6,4.1-0.8,6.2c-0.3,2.5,0.2,4.8,1.5,6.9c1.6,2.7,2.3,5.5,2,8.7c-0.2,1.6-0.1,3.1,0.2,4.7c0.1,0.3,0.4,0.5,0.7,0.5  c0.1,0,0.2-0.1,0.2-0.1c1.5-1.2,2.9-2.5,4.1-4c0.5-0.6,0.6-1.2,0.5-1.9c-0.4-2.2-1.1-4.3-0.7-6.5c0.2-1.3,0.4-2.2-0.5-3.3  c-3.9-4.5-3.7-8.7,0.6-12.7c0.1-0.1,0.3-0.2,0.5-0.2c0.4-0.1,0.5,0.1,0.3,0.6c-0.5,1.2-0.9,2.4-1.2,3.4c-0.4,1.3-0.4,2.5-0.2,3.5  c0.3,1.4,1,2.7,2.1,3.9c0.2,0.2,0.4,0.2,0.6,0c2.5-2.9,2.9-6,1.3-9.4c-0.3-0.6-0.2-0.7,0.4-0.3c2.8,2,3.8,4.6,2.9,7.8  c-0.2,0.6-0.7,1.7-1.7,3.4c-1.8,2.9-2.4,6.1-1.8,9.6c0.1,0.4,0.4,0.7,0.8,0.6c0.1,0,0.2,0,0.2-0.1c3.8-2,6.3-5,7.4-9  c0.2-0.7,0.8-1.7,1.8-2.9c1.1-1.3,1.6-1.3,1.7,0.2c0,0.1,0,0.5,0,1.3c0.1,2.1-0.4,4.1-1.3,6.1c-1.8,3.1-4.4,5.2-7.8,6.4  c-1.8,0.6-3.7,1.7-5.8,3.3c-4.3,3.3-6.2,7.7-5.8,13c0.2,2.6,1.1,5,2.7,7.3c0.2,0.3,0.6,0.4,1,0.3c0.8-0.3,1.4-0.7,1.7-1.2  c0.2-0.4,0.2-1-0.1-1.8c-0.5-1.4-0.8-2.9-0.7-4.4c0-1.3,0.5-2.7,1.3-4.2c1.5-2.8,3.5-5.3,6-7.7c0.4-0.4,0.6-0.3,0.5,0.2  c-0.1,3.1-1.4,5.8-3.8,8.1c-1.7,1.7-2.3,3.7-1.9,6c0.9,4.7,8.1-1.3,9.5-2.8c2.8-3,4.7-7,5.3-11.1c0.2-1,0.5-1.9,1-2.6c0,0,0,0,0,0  c0.5,0.4,0.8,1,0.9,1.7c0.7,10-3.6,16.5-12.9,19.7C81.7,67.2,78.9,69.1,76.6,71.6z M38.6,87.3c-1.3-1.8-2.8-3.5-4.4-5.1  c-0.9-0.9-2.2-2.6-3.8-5.1c-1.1-1.7-2.9-3.7-5.5-6.2c-0.8-0.8-2.2-3-4.3-6.7c-0.2-0.3-0.3-0.6-0.5-0.7c-0.5-0.6-0.8-0.5-1,0.2  c-0.1,0.2-0.1,0.5,0,0.9c0.3,4,2,7.4,4.8,10.2c0.5,0.5,1,1,1.4,1.6c0.7,0.9,0.4,1.2-0.8,0.8c-1-0.3-1.9-0.8-2.7-1.5  c-0.1-0.1-0.8-0.8-2.1-2.1c-3.2-3.3-6.1-6.9-8.7-10.8c-1-1.4-2-2.9-3.2-4.3c-0.5-0.6-0.8-0.6-0.9,0.2l-0.4,2.6  c0,0.3,0.1,0.5,0.3,0.7c2.4,1.9,4.1,4.1,4.9,6.8c0.3,1,0,1.4-1.1,1.1c-2.3-0.7-4.7-1.6-7.2-2.9c-0.7,0.3-0.8,0.8-0.3,1.3  c0.7,0.9,1.6,1.5,2.7,2c2.1,0.9,4.2,2,6.3,3.1c1.5,0.9,2.8,1.9,3.8,3.3c0.1,0.2,0.1,0.3-0.1,0.3l-8.2,0.3c-0.1,0-0.1,0-0.2,0  c-0.3,0.1-0.4,0.4-0.3,0.7c1.1,2.3,2.8,3.2,5.2,2.9c1.4-0.2,2.7-0.4,4.1-0.6c1.8-0.3,3.1-0.3,3.9-0.1c1.3,0.3,2.5,0.9,3.6,1.9  c0.3,0.2,0.2,0.4-0.1,0.4c-2.2,0.1-4.2,0.6-6.2,1.5c0,0-0.1,0-0.1,0.1c-0.4,0.2-0.5,0.7-0.2,1c0.9,1.4,2.2,1.8,4,1.3  c2.7-0.8,5.4-0.8,8.1,0c2.9,0.8,4.3,2.8,4.3,6.1c0,0.5,0.3,0.9,0.7,1l6.4,1.5c0.2,0,0.4-0.1,0.4-0.2c0-0.2,0-0.4-0.1-0.6  C40.9,91.6,40.1,89.3,38.6,87.3z M78.7,82.4c-1.2-0.5-2.4-0.7-3.7-0.8c-1,0-2.2,0-3.7,0.1c-6,0.5-10,3.8-11.9,9.9  c-0.5,1.6,0.1,2.2,1.7,1.7c4.2-1.1,8.6-3,13.3-5.6c0.3-0.2,0.3-0.3,0-0.4c-0.1,0-0.2,0-0.3,0c-2.5,0.5-4.9,1.2-7.3,2  c-0.2,0.1-0.3,0-0.2-0.2c0.1-0.1,0.2-0.3,0.4-0.4c2.3-1.3,4.7-2.2,7.2-2.8c1.4-0.3,2.3-0.6,2.7-0.8c0.8-0.4,1.6-1.1,2.2-1.9  c0,0,0.1-0.1,0.1-0.2C79.2,82.9,79,82.6,78.7,82.4z"
     id="path1" /></svg>
