<?xml version="1.0" encoding="UTF-8" standalone="no"?>
<svg
   version="1.1"
   x="0px"
   y="0px"
   viewBox="0 0 50 62.5"
   enable-background="new 0 0 50 50"
   xml:space="preserve"
   id="svg2"
   sodipodi:docname="coral2.svg"
   inkscape:version="1.4.2 (ebf0e940d0, 2025-05-08)"
   xmlns:inkscape="http://www.inkscape.org/namespaces/inkscape"
   xmlns:sodipodi="http://sodipodi.sourceforge.net/DTD/sodipodi-0.dtd"
   xmlns="http://www.w3.org/2000/svg"
   xmlns:svg="http://www.w3.org/2000/svg"><defs
     id="defs2" /><sodipodi:namedview
     id="namedview2"
     pagecolor="#ffffff"
     bordercolor="#000000"
     borderopacity="0.25"
     inkscape:showpageshadow="2"
     inkscape:pageopacity="0.0"
     inkscape:pagecheckerboard="0"
     inkscape:deskcolor="#d1d1d1"
     inkscape:zoom="6.464"
     inkscape:cx="25.061881"
     inkscape:cy="49.814356"
     inkscape:window-width="1017"
     inkscape:window-height="607"
     inkscape:window-x="0"
     inkscape:window-y="0"
     inkscape:window-maximized="1"
     inkscape:current-layer="svg2" /><g
     id="g1"><path
       d="M6.7,34.9c2.3,1.3,16.8,2.2,21,13c0.1,0.3,0.3,0.7,0.6,0.9c0.4,0.3,3.2,0.6,4.5-0.5c1.3-1.1,3.2-7,3.7-8.7   c1.4-5.1,3.1-4.6,7.5-7.5c0.2-0.2,0.5-0.4,0.5-0.6c0-0.2-0.1-0.3-0.2-0.4c-1.2-1.8-2.5-3.7-4.7-4.5c-0.8-0.3-1.6-0.3-2.5-0.1   c-0.2,0.1-0.4,0.1-0.6,0.3c-0.2,0.2-0.3,0.4-0.4,0.7c-1.2,3.2-1.3,3.6-1.9,3.8c-0.6,0.2-1.1-0.5-1.3-1.1c-0.5-1.6-0.6-3.4-0.1-5.1   c1-4,4.6-6.8,7.9-9.2l3.5-2.6c0.7-0.5,0.9-1.5,0.4-2.2c0,0,0,0,0,0c-1.3-1.8-2.8-3.6-5-4.5c-1.3-0.5-3.4-0.7-4.4,0.2   c-0.9,0.8-1.4,3.2-1.5,4.4c-0.2,1.5-3.5,2.4-2.2-2.6c1.7-6.2,2-6.1-0.4-6.6c-5.6-1.1-5.1-1-10,0.6c-0.8,0.3-1.8,0.4-2.2,1.2   c-0.4,0.9,0.2,1.8,0.7,2.6c2.5,4,3.6,8.7,4.7,13.3c1.1,4.9-3.9,3.4-4.1-0.7c0-0.8,0-1.6-0.5-2.1c-0.3-0.3-0.8-0.3-1.2-0.3   c-3.2-0.1-6.3,2.1-7.3,5.1c-0.1,0.4-0.2,0.8-0.1,1.2c0.1,0.4,0.5,0.6,0.8,0.8c2,1.4,4,2.9,6,4.3c0.9,1-0.8,3-2.7,1.4   c-1.6-1.3-2.2-4.1-4.2-4.3c-0.5-0.1-1,0-1.5,0.2c-2.2,0.9-3.2,3.3-4.1,5.5c-0.3,0.7-0.5,1.4-0.5,2.1C5.1,33.6,5.8,34.4,6.7,34.9z"
       id="path1" /></g></svg>
