<?xml version="1.0" encoding="UTF-8" standalone="no"?>
<svg
   version="1.1"
   x="0px"
   y="0px"
   viewBox="0 0 32 40"
   style="enable-background:new 0 0 32 32;"
   xml:space="preserve"
   id="svg2"
   sodipodi:docname="coral3.svg"
   inkscape:version="1.4.2 (ebf0e940d0, 2025-05-08)"
   xmlns:inkscape="http://www.inkscape.org/namespaces/inkscape"
   xmlns:sodipodi="http://sodipodi.sourceforge.net/DTD/sodipodi-0.dtd"
   xmlns="http://www.w3.org/2000/svg"
   xmlns:svg="http://www.w3.org/2000/svg"><defs
     id="defs2" /><sodipodi:namedview
     id="namedview2"
     pagecolor="#ffffff"
     bordercolor="#000000"
     borderopacity="0.25"
     inkscape:showpageshadow="2"
     inkscape:pageopacity="0.0"
     inkscape:pagecheckerboard="0"
     inkscape:deskcolor="#d1d1d1"
     inkscape:zoom="10.1"
     inkscape:cx="16.039604"
     inkscape:cy="8.1188119"
     inkscape:window-width="1029"
     inkscape:window-height="607"
     inkscape:window-x="0"
     inkscape:window-y="0"
     inkscape:window-maximized="1"
     inkscape:current-layer="svg2" /><path
     d="M24.79,12.48c-0.27-0.19-0.6,0.11-0.81,0.37s-0.59,0.52-0.82,0.28c-0.12-0.13-0.11-0.32-0.14-0.49  c-0.09-0.41-0.66-0.69-0.95-0.38c-0.17,0.19-0.15,0.49-0.06,0.73c0.1,0.24,0.25,0.45,0.33,0.69c0.11,0.34,0.07,0.73-0.14,1.02  c-0.27,0.36-0.37,0.05-0.42-0.07c-0.06-0.15-0.14-0.28-0.24-0.39c-0.2-0.21-0.54-0.31-0.78-0.15c-0.38,0.25-0.25,0.93-0.64,1.17  c-0.37,0.23-0.82-0.15-1.09-0.49c-0.16-0.21-0.33-0.44-0.34-0.7c-0.01-0.39,0.33-0.71,0.68-0.89c0.35-0.18,0.75-0.28,1.05-0.53  c0.4-0.34,0.56-0.91,1-1.2c0.28-0.19,0.62-0.23,0.93-0.33c0.32-0.1,0.65-0.28,0.74-0.6c0.09-0.32-0.23-0.72-0.53-0.59  c-0.17,0.07-0.26,0.27-0.43,0.33c-0.23,0.09-0.48-0.12-0.58-0.35c-0.1-0.23-0.12-0.49-0.24-0.71c-0.12-0.22-0.43-0.37-0.62-0.2  c-0.15,0.13-0.13,0.36-0.1,0.56c0.06,0.32,0.12,0.66,0.04,0.98c-0.07,0.32-0.32,0.63-0.65,0.65c-0.16,0.01-0.33-0.04-0.49,0  c-0.39,0.09-0.53,0.68-0.93,0.73c-0.4,0.05-0.62-0.53-0.43-0.9c0.18-0.36,0.57-0.57,0.86-0.86c0.29-0.28,0.49-0.77,0.23-1.08  c-0.22-0.26-0.66-0.23-0.92-0.01c-0.26,0.22-0.39,0.56-0.48,0.89c-0.09,0.33-0.15,0.67-0.33,0.96c-0.17,0.27-0.44,0.5-0.47,0.82  c-0.04,0.37,0.25,0.82-0.03,1.07c-0.17,0.15-0.44,0.09-0.67,0.14c-0.43,0.1-0.59,0.75-0.27,1.04c0.28,0.25,0.71,0.2,1.06,0.33  c0.64,0.25,0.84,1.05,0.96,1.73c0.03,0.16,0.05,0.34-0.03,0.49c-0.11,0.21-0.4,0.26-0.64,0.24c-0.24-0.02-0.48-0.1-0.72-0.05  c-0.31,0.06-0.59,0.34-0.89,0.25c-0.24-0.07-0.37-0.35-0.35-0.6c0.01-0.16,0.07-0.31,0.15-0.46c0.04-0.08,0.09-0.29-0.15-0.29  c-0.24,0-0.47,0.21-0.59,0.44c-0.17,0.32-0.18,0.69-0.29,1.03c-0.11,0.34-0.37,0.68-0.72,0.69c-0.31,0-0.64-0.24-0.9-0.07  c-0.13,0.09-0.23,0.28-0.39,0.24c-0.11-0.02-0.16-0.15-0.18-0.26c-0.07-0.43,0.1-0.9,0.42-1.19c0.35-0.32,0.86-0.45,1.18-0.8  c0.07-0.08,0.13-0.17,0.13-0.28c-0.01-0.26-0.38-0.33-0.63-0.24s-0.5,0.25-0.75,0.17c-0.31-0.1-0.38-0.54-0.27-0.85  c0.11-0.31,0.34-0.57,0.43-0.89c0.09-0.36,0-0.76,0.16-1.09c0.11-0.23,0.34-0.39,0.57-0.51c0.81-0.4,1.77-0.34,2.6-0.67  c0.24-0.1,0.51-0.33,0.41-0.56c-0.07-0.17-0.3-0.21-0.47-0.17c-0.18,0.05-0.33,0.16-0.5,0.22c-0.17,0.06-0.37,0.05-0.51-0.07  c-0.5-0.44,0.66-1.33,0.84-1.59c0.43-0.63,1.08-1.12,1.75-1.5c0.95-0.52,2-0.87,2.92-1.45c0.43-0.27,0.85-0.62,0.99-1.11  C21.8,4.63,21.51,4,21.01,3.96c-0.58-0.05-0.93,0.6-1.37,0.98c-0.19,0.17-0.48,0.29-0.68,0.13c-0.09-0.07-0.13-0.18-0.16-0.28  c-0.12-0.46,0.06-0.93,0.18-1.39c0.12-0.46,0.17-1-0.15-1.35c-0.27-0.31-0.79-0.35-1.11-0.1c-0.49,0.38-0.39,1.13-0.34,1.76  c0.05,0.59,0.01,1.18-0.11,1.76c-0.11,0.53-0.3,1.05-0.67,1.45c-0.36,0.4-0.92,0.65-1.45,0.53C14.51,7.3,14.08,6.65,14,6  c-0.08-0.65,0.13-1.3,0.36-1.92c0.2-0.53,0.42-1.05,0.72-1.52c0.24-0.38,0.55-0.85,0.33-1.25c-0.2-0.38-0.78-0.39-1.12-0.13  c-0.33,0.27-0.47,0.71-0.54,1.13s-0.08,0.86-0.25,1.26c-0.03,0.07-0.07,0.15-0.14,0.17c-0.13,0.05-0.25-0.1-0.31-0.23  c-0.13-0.31-0.17-0.66-0.36-0.93c-0.2-0.27-0.67-0.38-0.85-0.1c-0.17,0.27,0.07,0.63-0.04,0.93c-0.07,0.18-0.26,0.29-0.38,0.44  c-0.38,0.44-0.06,1.26,0.52,1.32c0.4,0.05,0.91-0.17,1.15,0.15c0.09,0.12,0.1,0.29,0.11,0.44c0.07,0.74,0.36,1.45,0.83,2.03  c0.17,0.21,0.37,0.41,0.47,0.66c0.1,0.25,0.08,0.58-0.14,0.75c-0.1,0.08-0.24,0.11-0.36,0.16c-0.47,0.2-0.7,0.73-0.92,1.2  c-0.3,0.63-0.67,1.23-1.11,1.78c-0.06,0.08-0.14,0.17-0.24,0.2c-0.23,0.06-0.41-0.19-0.47-0.42c-0.22-0.81,0.13-1.73,0.82-2.2  c0.24-0.16,0.52-0.28,0.65-0.53c0.13-0.25-0.05-0.66-0.32-0.59c-0.16,0.04-0.24,0.21-0.37,0.31c-0.29,0.21-0.74-0.04-0.84-0.38  c-0.1-0.35,0.04-0.71,0.21-1.03c0.17-0.31,0.39-0.62,0.45-0.97c0.06-0.35-0.08-0.78-0.43-0.89c-0.06-0.02-0.13-0.03-0.19-0.01  c-0.21,0.06-0.23,0.36-0.39,0.52c-0.15,0.15-0.41,0.15-0.6,0.05c-0.19-0.1-0.33-0.27-0.48-0.43C9.69,5.86,9.55,5.74,9.4,5.78  C9.25,5.82,9.19,6,9.17,6.15C9.07,6.8,9.28,7.49,9.72,7.97c0.12,0.14,0.27,0.27,0.33,0.45c0.06,0.18-0.02,0.42-0.2,0.45  c-0.05,0.01-0.11,0-0.16,0.01C9.42,8.91,9.36,9.29,9.51,9.51c0.15,0.22,0.41,0.32,0.64,0.46s0.43,0.38,0.37,0.64  c-0.07,0.29-0.46,0.39-0.73,0.28c-0.27-0.11-0.46-0.37-0.64-0.6C8.97,10.04,8.75,9.8,8.47,9.74c-0.55-0.12-1.05,0.55-0.89,1.09  c0.15,0.54,0.75,0.87,1.31,0.89c0.26,0.01,0.55-0.03,0.78,0.1c0.36,0.2,0.41,0.69,0.64,1.02c0.21,0.29,0.56,0.46,0.77,0.75  c0.28,0.39,0.27,0.92,0.23,1.41c-0.01,0.11-0.02,0.24-0.11,0.31c-0.1,0.08-0.25,0.06-0.37,0.02c-0.24-0.09-0.45-0.24-0.61-0.44  c-0.18-0.23-0.3-0.52-0.55-0.64c-0.46-0.23-1.01,0.34-0.93,0.85c0.07,0.51,0.52,0.88,0.98,1.12c0.46,0.23,0.97,0.39,1.36,0.73  c0.74,0.63,0.99,1.86,0.93,2.85c-0.05,0.73-0.43-0.07-0.83,0c-0.17,0.03-0.18,0.3-0.16,0.47c0.06,0.51,0.59,0.93,1.1,0.86  c0.2-0.03,0.42-0.11,0.6-0.02c0.22,0.11,0.26,0.42,0.22,0.66c-0.05,0.25-0.15,0.49-0.09,0.74c0.08,0.32,0.39,0.51,0.62,0.74  c0.22,0.24,0.33,0.69,0.04,0.85c-0.12,0.06-0.27,0.06-0.38,0.14c-0.19,0.16-0.04,0.49,0.18,0.6c0.22,0.11,0.49,0.11,0.7,0.22  c0.13,0.07,0.24,0.16,0.32,0.28c0.16,0.25,0,0.4-0.1,0.43c-0.21,0.06-0.42,0.08-0.63,0.03c-0.2-0.05-0.37-0.16-0.55-0.27  c-0.47-0.31-0.94-0.62-1.4-0.94c-0.13-0.09-0.27-0.19-0.35-0.33c-0.14-0.25-0.05-0.57,0.08-0.83c0.13-0.26,0.31-0.5,0.34-0.79  c0.05-0.41-0.21-0.8-0.51-1.09c-0.3-0.29-0.66-0.51-0.92-0.84c-0.26-0.33-0.39-0.81-0.16-1.16c0.1-0.15,0.25-0.26,0.38-0.39  c0.27-0.29,0.39-0.7,0.33-1.09c-0.03-0.18-0.13-0.37-0.31-0.39c-0.22-0.02-0.35,0.23-0.54,0.34c-0.23,0.13-0.53,0.05-0.73-0.12  c-0.2-0.17-0.34-0.4-0.5-0.61c-0.16-0.21-0.36-0.41-0.62-0.46C7.7,16.73,7.31,17.1,7.15,17.5c-0.09,0.22-0.13,0.46-0.05,0.68  c0.16,0.45,0.73,0.58,1.21,0.54c0.2-0.02,0.4-0.05,0.61-0.03c0.2,0.02,0.41,0.11,0.52,0.28c0.18,0.3,0.01,0.67-0.01,1.02  c-0.02,0.54,0.35,1,0.66,1.44c0.31,0.44,0.57,1.02,0.32,1.5c-0.12,0.24-0.38,0.41-0.65,0.42c-0.27,0.01-0.54-0.15-0.65-0.4  c-0.11-0.25-0.04-0.54,0-0.82c0.04-0.25,0.05-0.5-0.02-0.74c-0.07-0.24-0.23-0.46-0.46-0.55c-0.39-0.15-0.84,0.11-1.02,0.49  c-0.17,0.38-0.13,0.82-0.01,1.22c0.08,0.27,0.18,0.53,0.36,0.75c0.34,0.42,0.88,0.61,1.37,0.82c0.49,0.21,1.01,0.52,1.18,1.03  c0.04,0.11,0.05,0.26-0.04,0.34c-0.08,0.07-0.2,0.06-0.31,0.03c-0.23-0.05-0.46-0.14-0.7-0.12c-0.24,0.02-0.49,0.19-0.49,0.43  C8.96,26,9.06,26.14,9.15,26.28c0.17,0.27,0.29,0.57,0.54,0.76s0.68,0.19,0.81-0.09c0.11-0.23-0.01-0.54,0.16-0.73  c0.15-0.16,0.41-0.11,0.63-0.11c0.42,0.02,0.87-0.17,1.26-0.02c0.25,0.09,0.43,0.3,0.67,0.42c0.34,0.17,0.71,0.12,1.09,0.07  c0.9-0.14,1.23,0.31,1.39,0.52c0.17,0.21,0.32,0.44,0.41,0.7c0.21,0.56,0.13,1.19,0.03,1.78c-0.04,0.27-0.09,0.56,0,0.82  c0.13,0.41,0.59,0.68,1.01,0.6c0.42-0.08,0.74-0.51,0.71-0.93c-0.02-0.31-0.21-0.58-0.26-0.88c-0.13-0.71,0.45-1.35,1.06-1.72  s1.33-0.61,1.8-1.15c0.06-0.07,0.12-0.14,0.14-0.23c0.07-0.27-0.24-0.52-0.51-0.49c-0.28,0.03-0.49,0.26-0.63,0.5  c-0.05,0.1-0.1,0.21-0.2,0.27c-0.22,0.13-0.5-0.14-0.49-0.4c0-0.26,0.17-0.48,0.29-0.71c0.17-0.31,0.26-0.67,0.26-1.03  c0-0.07-0.01-0.15-0.06-0.2c-0.04-0.04-0.1-0.04-0.15-0.04c-0.64,0.01-0.97,0.79-1,1.43c-0.03,0.64,0.06,1.37-0.37,1.85  c-0.07,0.09-0.17,0.16-0.28,0.18c-0.24,0.04-0.43-0.22-0.48-0.46c-0.05-0.24-0.01-0.49-0.1-0.72c-0.21-0.55-1.04-0.75-1.09-1.34  c-0.03-0.36,0.28-0.66,0.58-0.85c0.54-0.34,1.16-0.54,1.78-0.73c0.15-0.05,0.3-0.09,0.45-0.14c0.43-0.13,0.88-0.27,1.32-0.17  c0.13,0.03,0.26,0.08,0.38,0.02c0.1-0.04,0.15-0.14,0.22-0.23c0.28-0.36,0.79-0.43,1.25-0.39c0.45,0.04,0.9,0.16,1.35,0.1  c0.21-0.03,0.43-0.11,0.56-0.28s0.14-0.45-0.02-0.59c-0.23-0.19-0.57-0.02-0.84,0.11c-0.27,0.14-0.69,0.17-0.78-0.12  c-0.13-0.44,0.76-0.59,0.75-1.04c0-0.27-0.36-0.42-0.62-0.32c-0.25,0.1-0.42,0.33-0.59,0.55c-0.17,0.21-0.38,0.43-0.65,0.45  c-0.28-0.26-0.09-0.73,0.12-1.04c0.21-0.32,0.43-0.76,0.18-1.05c-0.16-0.2-0.48-0.21-0.7-0.08c-0.22,0.13-0.36,0.36-0.45,0.6  c-0.1,0.29-0.15,0.6-0.13,0.9c0.03,0.45,0.18,0.94-0.07,1.32c-0.24,0.37-0.74,0.44-1.18,0.47c-0.17,0.01-0.37,0.01-0.49-0.11  c-0.3-0.32,0.28-0.78,0.26-1.22c-0.02-0.41-0.62-0.57-0.94-0.33c-0.33,0.24-0.41,0.7-0.4,1.1c0.01,0.18,0.03,0.37-0.06,0.53  c-0.08,0.14-0.23,0.23-0.38,0.31c-0.48,0.26-0.97,0.52-1.45,0.78c-0.17,0.09-0.38,0.17-0.53,0.06c-0.07-0.06-0.11-0.15-0.13-0.24  c-0.22-1.04-1.21-0.97-0.85-2.77c0.06-0.3-0.16-0.62,0-0.88c0.21-0.35,0.72-0.36,1.1-0.21c0.38,0.14,0.72,0.4,1.13,0.46  c0.4,0.06,0.9-0.21,0.86-0.61c-0.03-0.26-0.28-0.46-0.54-0.51c-0.26-0.05-0.53,0.01-0.79,0.07c0.14-0.37,0.56-0.56,0.95-0.63  c0.39-0.07,0.81-0.06,1.17-0.22c0.46-0.2,0.81-0.65,1.31-0.73c0.4-0.06,0.79,0.12,1.18,0.17c0.4,0.05,0.9-0.16,0.9-0.56  c0-0.21-0.15-0.42-0.06-0.61c0.11-0.22,0.43-0.19,0.68-0.13c0.57,0.13,1.16,0.19,1.74,0.18c0.18-0.01,0.4-0.04,0.48-0.2  c0.11-0.22-0.12-0.47-0.36-0.52c-0.14-0.03-0.3-0.03-0.44-0.04c-0.1-0.01-0.37-0.08-0.22-0.38c0.13-0.26,0.35-0.5,0.57-0.71  c0.38-0.35,0.76-0.7,1.14-1.04c0.14-0.13,0.28-0.26,0.35-0.43C24.97,12.82,24.94,12.59,24.79,12.48z"
     id="path1" /></svg>
