<?xml version="1.0" encoding="UTF-8" standalone="no"?>
<svg
   version="1.1"
   x="0px"
   y="0px"
   viewBox="0 0 100 125"
   enable-background="new 0 0 100 100"
   xml:space="preserve"
   id="svg2"
   sodipodi:docname="coral4.svg"
   inkscape:version="1.4.2 (ebf0e940d0, 2025-05-08)"
   xmlns:inkscape="http://www.inkscape.org/namespaces/inkscape"
   xmlns:sodipodi="http://sodipodi.sourceforge.net/DTD/sodipodi-0.dtd"
   xmlns="http://www.w3.org/2000/svg"
   xmlns:svg="http://www.w3.org/2000/svg"><defs
     id="defs2" /><sodipodi:namedview
     id="namedview2"
     pagecolor="#ffffff"
     bordercolor="#000000"
     borderopacity="0.25"
     inkscape:showpageshadow="2"
     inkscape:pageopacity="0.0"
     inkscape:pagecheckerboard="0"
     inkscape:deskcolor="#d1d1d1"
     inkscape:zoom="3.232"
     inkscape:cx="50.123762"
     inkscape:cy="62.5"
     inkscape:window-width="1017"
     inkscape:window-height="607"
     inkscape:window-x="0"
     inkscape:window-y="0"
     inkscape:window-maximized="1"
     inkscape:current-layer="svg2" /><path
     d="M20.6,51.3c-0.3-0.2-0.7-0.4-1-0.7c-0.4-0.2-0.6-0.5-0.7-0.9c-0.5-1.4,0-2.1,1.6-2.2c0.2,0,0.3-0.2,0.3-0.4c0,0,0-0.1,0-0.1  c-0.2-0.7-0.3-1.3-0.2-1.9c0.1-0.4,0.2-0.7,0.4-0.9c0.3-0.3,0.6-0.4,1-0.4c0.4,0,0.8,0.1,1.2,0.4c0.4,0.2,0.7,0.5,1,0.9  c0.1,0.1,0.3,0.2,0.5,0c0,0,0.1-0.1,0.1-0.1c0.1-0.1,0.1-0.3,0.2-0.5c0.1-0.2,0.1-0.4,0.2-0.5c0.4-0.6,0.9-0.7,1.4-0.3  c0.3,0.2,0.4,0.5,0.6,1c0.1,0.6,0.3,1.1,0.4,1.5c0.2,0.5,0.5,0.8,1,0.8c1.3,0.1,1.8,0.6,1.6,1.7c-0.3,1.7,0.2,3,1.5,4  c0.1,0,0.2,0.1,0.3,0.1l1.8,0.3c0.4,0.1,0.5,0.3,0.4,0.8c-0.1,0.4-0.1,0.8,0,1.1c0.1,0.3,0.2,0.6,0.5,0.9c1.3,1.3,3,1.8,4.9,1.6  c2.3-0.3,3.7-1.5,4.1-3.7c0.7-3.7-2.2-5.9-5.1-7.5c-3.5-1.9-5.3-5-9.2-6.5c-0.3-0.1-0.7-0.2-1.2-0.3c-0.3,0-0.6,0-0.8-0.1  c-0.3,0-0.6-0.1-0.7-0.3c-0.4-0.4-0.3-1,0.2-1.8c0.3-0.5,0.2-0.7-0.4-0.8l-2-0.3c-0.6-0.1-0.8-0.4-0.8-1c0.1-1,0.7-1.5,1.8-1.5  c0.4,0,0.4-0.1,0.1-0.3c-0.4-0.3-0.8-0.8-1.2-1.3c-0.3-0.4-0.4-0.8-0.3-1.2c0.1-0.3,0.3-0.7,0.6-1c0.9-0.8,1.9-0.9,2.9-0.3  c0.5,0.3,0.7,0.1,0.6-0.4c-0.1-0.4-0.2-0.9-0.2-1.3c-0.1-0.5,0-1,0.2-1.3c0.3-0.5,0.7-0.8,1.3-0.8c0.4,0,0.8,0.2,1.1,0.5  c0.3,0.3,0.5,0.7,0.7,1.1c0.1,0.2,0.2,0.3,0.4,0c0.4-0.7,1-1,1.6-0.9c0.1,0,0.2,0.1,0.2,0.2c0.4,0.7,0.5,1.5,0.5,2.3  c0,0.5,0,0.8,0,1c0.1,0.3,0.2,0.6,0.4,0.9c0.1,0.2,0.3,0.2,0.5,0.1c0,0,0,0,0,0c0.5-0.5,1-0.6,1.5-0.4c0.3,0.2,0.6,0.5,0.7,1.1  c0.1,0.6,0.2,1.2,0.2,1.8c0.1,2,0.9,3.8,2.3,5.1c0.9,0.8,1.9,1,3,0.7c1.2-0.3,2-1.1,2.4-2.2c0.4-1.1,0.4-2.3-0.1-3.6  c-1.8-5.8-7.7-11.4-13.6-12.7c-0.4-0.1-0.7-0.1-1.1-0.1c-0.3,0-0.7,0.1-1.1,0.1c-0.2,0-0.4-0.1-0.5-0.2c-0.7-1-0.4-1.8,1-2.2  c0.3-0.1,0.3-0.2,0.1-0.4c-1.4-1-1.7-2-0.9-3.1c0.2-0.4,0.5-0.6,0.9-0.7c0.5-0.1,0.9-0.1,1.2,0.1c0.5,0.3,0.8,0.2,0.6-0.5  c-0.1-0.5-0.1-1.1-0.1-1.6c0.1-1.3,0.7-1.9,1.8-1.9c0.4,0,0.8,0.2,1.2,0.5c0.3,0.3,0.6,0.6,0.9,0.9c0.1,0.1,0.2,0.1,0.2,0  c0,0,0,0,0-0.1c0.2-0.4,0.4-0.8,0.7-1.2c0.3-0.4,0.7-0.7,1-0.8c0.6-0.1,1,0,1.4,0.6c0.4,0.6,0.6,1.5,0.6,2.6c0,1.1,0.3,2.1,0.9,3  c0.1,0.1,0.2,0.1,0.3,0c0,0,0,0,0,0c1.1-1,2-0.8,2.6,0.4c0.1,0.2,0.1,0.6-0.1,1c-0.2,0.4-0.2,0.7-0.2,0.9c0,1.1,0.5,2.1,1.3,3  c1.1,1.2,2.3,1.6,3.4,1c0.8-0.4,1.5-1.2,1.9-2.3c0.5-1.4,0.7-2.9,0.3-4.5c0-0.1-0.1-0.2-0.2-0.3c-0.6-0.5-0.8-1.2-0.7-1.9  c0.1-0.6,0.3-1,0.6-1.4c0.4-0.6,1.1-0.5,1.9,0.2c0.1,0.1,0.1,0.1,0.2-0.1C52,11,52.2,10,52.3,9c0-0.4,0.2-0.9,0.5-1.2  c0.3-0.4,0.7-0.6,1.1-0.6c0.8-0.1,1.4,0.3,1.9,1.3c0,0.1,0.1,0.1,0.2,0.1c0,0,0,0,0,0c0.4-0.4,0.8-0.8,1.1-1.1  c0.7-0.7,1.3-0.8,2-0.4c0.6,0.4,0.9,0.9,0.9,1.7c0,0.6-0.1,1.1-0.2,1.6c-0.1,0.3,0,0.4,0.3,0.2c0.3-0.2,0.5-0.4,0.8-0.5  c0.3-0.2,0.6-0.3,0.9-0.3c1,0,1.5,0.5,1.4,1.7c0,0.1,0,0.2-0.1,0.3c-0.2,0.3-0.2,0.5,0.2,0.6c0.1,0,0.2,0.1,0.3,0.1  c0.4,0.4,0.5,0.8,0.2,1.2c-0.2,0.3-0.4,0.5-0.8,0.7c-0.5,0.2-1,0.2-1.6,0.2c-0.3,0-0.6,0.1-0.9,0.3c-0.9,0.8-1.8,2-2,3.2  c-0.3,1.5-0.3,2.6-1.4,3.8c-0.9,1-1.9,1.9-2.4,3.1c-0.7,1.7-0.6,4.8,1.4,5.6c0.8,0.3,1.6,0.2,2.5-0.2c0.9-0.4,1.7-1.1,2.5-2  c1.3-1.6,2.8-3.7,2.7-5.9c0-0.3-0.1-0.7,0-1c0.2-0.7,1.3-0.8,1.6-1.6c0.2-0.5,0.3-0.8,0.5-0.9c0.3-0.2,0.6-0.2,0.9,0  c0.2,0.1,0.3,0.4,0.4,0.7c0.1,0.4,0.3,0.9,0.4,1.3c0,0.1,0.1,0.1,0.2,0.1c0,0,0,0,0,0c0.6-0.2,1.3-0.5,2.1-1  c0.4-0.2,0.9-0.3,1.3-0.1c0.4,0.1,0.7,0.4,1,0.8c0.8,1,0.7,2-0.4,3c-0.3,0.3-0.5,0.6-0.7,0.9c-0.1,0.2,0,0.2,0.1,0.2  c0.4,0,0.8,0,1.2-0.1c0.5,0,0.9,0,1.2,0.2c0.5,0.3,0.7,0.7,0.5,1.3c-0.1,0.4-0.4,0.8-0.8,1.2c-0.4,0.3-0.8,0.6-1.3,0.8  c-0.8,0.4-0.7,0.7,0.3,0.9c0.3,0.1,0.6,0.3,0.6,0.7c0.1,0.5-0.1,0.9-0.5,1.1c-0.2,0.1-0.6,0.1-1.1,0.1c-1.2,0-2.5,0.2-3.9,0.7  c-0.6,0.2-1.5,0.5-1.7,1.2c-0.1,0.4-0.1,0.7-0.3,1.1c-0.5,1.1-2.1,1-3,1.4c-0.5,0.2-1.2,0.6-2.2,1.2c-1.3,0.8-2.5,1.8-3.5,3  c-0.8,1-1.4,2-1.7,2.9c-0.3,1-0.5,2.2-0.5,3.5c0,1.6,0.5,2.9,1.5,3.8c0.5,0.4,1.2,0.6,2.2,0.6c1.4-0.1,2.9-0.7,4-1.6  c0.7-0.6,1.3-1.5,1.3-2.4c0-0.6-0.2-1.3-0.1-1.9c0.1-1.4,2-1.7,3-2.3c0.1-0.1,0.2-0.2,0.2-0.3c0-0.5,0.2-1,0.4-1.5  c0.2-0.4,0.4-0.8,0.7-0.9c0.4-0.2,0.9-0.2,1.3,0.2c0.2,0.1,0.4,0.1,0.6-0.1l1.2-1.3c0.1-0.1,0.2-0.1,0.3-0.1c0.5,0,0.8,0.1,1.1,0.4  c0.2,0.2,0.4,0.6,0.5,1.1c0.1,0.4,0.1,0.8,0.1,1.2c0,0.4,0.1,0.4,0.2,0.1c0.1-0.3,0.4-0.5,0.7-0.6c1.2-0.5,1.9-0.1,2.3,1  c0,0.1,0,0.2,0,0.3c-0.2,0.5-0.1,0.7,0.3,0.8c0.3,0.1,0.5,0.1,0.6,0.2c0.7,0.4,1.1,1,1,1.9c0,0.5-0.3,0.9-0.7,1.2  c-0.4,0.2-0.8,0.5-1.3,0.7C75,46.7,75,47,75.7,47.3c0.3,0.1,0.6,0.2,0.9,0.2c0.4,0,0.8,0.2,1.1,0.4c0.3,0.2,0.4,0.6,0.4,1  c-0.1,1.2-0.8,1.7-2.2,1.7c-0.6,0-1,0-1.4,0.1c-0.5,0.1-0.5,0.3-0.1,0.6c0.7,0.4,0.9,1,0.5,1.8c-0.3,0.7-1,0.9-1.9,0.8  c-0.8-0.1-1.6-0.2-2.4-0.3c-0.7,0-1.5,0.1-2.3,0.2C62.6,55,52,57,51,64.3c-0.2,1.7,0,3.1,0.8,4.3c0.9,1.4,2.5,2,4.6,1.8  c1.9-0.2,3.9-0.9,5.3-2.3c0.7-0.7,1.3-1.5,1.7-2.5c0.3-0.9-0.1-1.5-0.5-2.3c-0.3-0.6,0-1,0.8-1.1c0.6-0.1,1.3,0,1.8,0.2  c0.3,0.1,0.6,0,0.8-0.3c0.4-0.9,0.6-1.8,0.8-2.8c0.1-0.9,0.5-1.3,1.2-1c0.4,0.1,0.6,0.4,0.8,0.8c0.2,0.4,0.3,0.7,0.4,1.1  c0,0.1,0.1,0.1,0.1,0.1c0,0,0,0,0,0c1.1-0.9,1.8-1.4,2.2-1.5c0.9-0.2,1.6,0,2,0.6c0.2,0.4,0.3,0.9,0.2,1.4c-0.1,0.5-0.2,0.9-0.4,1.4  c-0.1,0.3,0,0.4,0.3,0.3c0.9-0.3,1.7-0.2,2.2,0.3c0.3,0.3,0.5,0.7,0.6,1.2c0,0.5-0.1,1-0.5,1.3c-0.5,0.4-1.1,0.8-1.7,1.1  c-0.2,0.1-0.2,0.2,0,0.2c2,0.5,2.2,1.5,0.7,2.8c-0.5,0.4-1.1,0.5-1.9,0.3c-0.1,0-0.2,0-0.3,0c-0.1,0.1-0.1,0.2,0,0.3  c0.1,0.1,0.1,0.2,0.1,0.3c-0.2,1.4-0.9,2-2.1,1.8c-0.5-0.1-0.7,0.1-0.8,0.6c-0.1,1-0.5,1.5-1.2,1.5c-0.5,0-0.7,0-0.7,0  c-1.2,0.1-2.4,0.5-3.7,1.2c-5.7,2.9-7.2,9.2-7.2,15.1c0,3-4.4,2.2-6.3,2.1c-0.7,0-1.1-0.4-1.2-1.1c-0.4-3.1-0.4-6.8-2.1-9.6  C46.1,79.1,43,77.6,40,77c-2.6-0.5-7-1-9.3,0.6c-0.6,0.4-1,0.6-1.3,0.6c-0.6,0-1.1-0.3-1.3-1.1c0-0.1-0.1-0.1-0.2-0.1c0,0,0,0,0,0  c-0.8,0.4-1.3,0.2-1.5-0.6c-0.2-0.8,0-1.3,0.7-1.6c0.4-0.1,0.5-0.4,0.4-0.6c0-0.1-0.1-0.2-0.2-0.1c-0.5,0-1,0-1.4,0  c-0.6,0-1-0.1-1.3-0.4c-0.6-0.5-0.7-1.2-0.4-2.1c0-0.1,0.1-0.2,0.2-0.2c0.6-0.4,1.2-0.6,1.9-0.8c0.3-0.1,0.3-0.2,0.1-0.4L24.8,69  c-0.4-0.4-0.5-0.8-0.3-1.2c0.8-1.5,2.1-1.7,3.9-0.6c0.3,0.2,0.5,0.1,0.4-0.3c0-0.2,0-0.5,0.2-0.9c0-0.1,0.1-0.2,0.2-0.3  c0.5-0.4,1-0.4,1.4-0.1c0.2,0.1,0.4,0.5,0.6,1.1c0.2,0.5,0.4,1.1,0.8,1.7c1.1,1.8,2.6,2.4,4.6,2.1c1.3-0.2,2.1-1,2.4-2.1  c0.2-0.7,0.1-1.4-0.2-2.1c-0.3-0.7-0.8-1.2-1.5-1.6c-1.9-1.2-3.6-2.1-5.2-2.7c-1.6-0.5-3.2-0.7-4.9-0.5c-0.5,0.1-0.8-0.1-0.9-0.6  l-0.2-1.5c0-0.1-0.1-0.2-0.2-0.3c-0.8-0.5-1.6-0.6-2.5-0.4c-0.7,0.1-1.1,0.2-1.2,0.2c-0.6,0-0.9-0.4-1-0.9c0-0.4,0.1-0.7,0.3-0.9  c0.2-0.3,0.5-0.4,0.9-0.6c0.1,0,0.2-0.1,0.1-0.2L22.1,55c-0.1-0.3-0.4-0.5-0.7-0.5c-0.9-0.1-1.5-0.5-1.9-1.1  c-0.2-0.4-0.3-0.8-0.2-1.2C19.5,51.6,19.9,51.3,20.6,51.3C20.7,51.3,20.7,51.3,20.6,51.3z"
     id="path1" /></svg>
