<?xml version="1.0" encoding="UTF-8" standalone="no"?>
<svg
   viewBox="0 0 512 640"
   x="0px"
   y="0px"
   version="1.1"
   id="svg2"
   sodipodi:docname="logo.svg"
   inkscape:version="1.4.2 (ebf0e940d0, 2025-05-08)"
   xmlns:inkscape="http://www.inkscape.org/namespaces/inkscape"
   xmlns:sodipodi="http://sodipodi.sourceforge.net/DTD/sodipodi-0.dtd"
   xmlns="http://www.w3.org/2000/svg"
   xmlns:svg="http://www.w3.org/2000/svg">
  <defs
     id="defs2" />
  <sodipodi:namedview
     id="namedview2"
     pagecolor="#ffffff"
     bordercolor="#000000"
     borderopacity="0.25"
     inkscape:showpageshadow="2"
     inkscape:pageopacity="0.0"
     inkscape:pagecheckerboard="0"
     inkscape:deskcolor="#d1d1d1"
     inkscape:zoom="0.63125"
     inkscape:cx="251.88119"
     inkscape:cy="451.48515"
     inkscape:window-width="1029"
     inkscape:window-height="607"
     inkscape:window-x="0"
     inkscape:window-y="0"
     inkscape:window-maximized="1"
     inkscape:current-layer="svg2" />
  <g
     id="g1">
    <path
       d="M32,296H16V272a24.112,24.112,0,0,1,7.435-17.367,23.805,23.805,0,0,1,17.715-6.606A24.2,24.2,0,0,1,64,272.452v46.859L91.241,352h28.424L93.259,318.993A24.087,24.087,0,0,1,88,304V280a24.112,24.112,0,0,1,7.435-17.367,23.814,23.814,0,0,1,17.715-6.606A24.2,24.2,0,0,1,136,280.452v15.1l17.593,21.707L160,312.923V312a24.112,24.112,0,0,1,7.435-17.367,23.8,23.8,0,0,1,17.715-6.606A24.2,24.2,0,0,1,208,312.452V328a23.885,23.885,0,0,1-15.086,22.283L168,360.249V365.3l48.654,48.1A9.011,9.011,0,0,0,232,406.989V318.883L202.7,272H160a23.882,23.882,0,0,1-18.741-9.007l-23.61-29.513-50.672,6.334a24.177,24.177,0,0,1-17.97-5.073c-.067-.054-.132-.108-.2-.164L24.9,214.159a24,24,0,0,1,30.1-37.393c.085.067.169.137.251.209L71.271,190.9l11.2-1.4L55.254,155.487a24.112,24.112,0,0,1-5.043-18.206,23.81,23.81,0,0,1,9.706-16.225,24.2,24.2,0,0,1,33.1,4.8L171.535,224H192V184H168a23.846,23.846,0,0,1-18.944-9.265l-46.178-59.371a24.114,24.114,0,0,1-4.793-18.273A23.814,23.814,0,0,1,108.013,81a24.2,24.2,0,0,1,33.032,5.251l37.489,48.2L158.779,79.14l15.069-5.382,24.125,67.551A8,8,0,0,1,190.439,152H175.825a8,8,0,0,1-6.315-3.088L128.415,96.075a8.327,8.327,0,0,0-11.184-2,8,8,0,0,0-1.723,11.462l46.178,59.371A7.949,7.949,0,0,0,168,168h32a8,8,0,0,1,8,8v56a8,8,0,0,1-8,8H167.69a8,8,0,0,1-6.247-3L80.524,135.849a8.327,8.327,0,0,0-11.21-1.843,8,8,0,0,0-1.565,11.486l36.144,45.18a8,8,0,0,1-5.255,12.936l-28.927,3.616a8,8,0,0,1-6.24-1.9l-18.58-16.148A8,8,0,0,0,35,201.753c.067.054.132.108.2.164l23.885,20.4a8.05,8.05,0,0,0,5.909,1.626l55.113-6.889a8.008,8.008,0,0,1,7.24,2.94L153.753,253A7.959,7.959,0,0,0,160,256h47.132a8,8,0,0,1,6.784,3.76l32.868,52.589a7.994,7.994,0,0,1,1.216,4.24v90.4a25.011,25.011,0,0,1-42.594,17.788l-51.03-50.446a8,8,0,0,1-2.376-5.69V354.833a8,8,0,0,1,5.029-7.428l29.942-11.977A7.962,7.962,0,0,0,192,328V312.452a8.328,8.328,0,0,0-7.6-8.443A8,8,0,0,0,176,312v5.167a8,8,0,0,1-3.515,6.625l-16,10.833a8,8,0,0,1-10.7-1.588l-24-29.612A8,8,0,0,1,120,298.388V280.452a8.328,8.328,0,0,0-7.6-8.443A8,8,0,0,0,104,280v24a8.029,8.029,0,0,0,1.753,5l28.494,35.618a8,8,0,0,1,1.753,5V360a8,8,0,0,1-8,8H87.494a8,8,0,0,1-6.146-2.878L49.854,327.329A8,8,0,0,1,48,322.207V272.452a8.328,8.328,0,0,0-7.6-8.443A8,8,0,0,0,32,272ZM178.691,63.534a8,8,0,0,1,10.225,4.843l12.406,34.739a8,8,0,0,0,12.532,3.556L229,94.557a8,8,0,0,0,3-6.247V56a8,8,0,0,1,8.4-7.991,8.328,8.328,0,0,1,7.6,8.443V96a7.959,7.959,0,0,1-3,6.247l-29.756,23.805a8,8,0,0,0-2.536,8.938l10.828,30.319A7.989,7.989,0,0,1,224,168v75.412a8,8,0,0,0,1.216,4.24l25.2,40.321a8,8,0,0,0,6.444,3.752c.114,0,.227.007.341.007a8,8,0,0,0,6.4-3.2l30.8-41.065a8,8,0,0,0,1.6-4.8V224H280v16l-22.2,29.6L240,241.117V168a23.932,23.932,0,0,0-1.4-8.072l-8.91-24.947,25.3-20.24A23.882,23.882,0,0,0,264,96V56.452a24.2,24.2,0,0,0-22.85-24.425,23.792,23.792,0,0,0-17.715,6.606A24.112,24.112,0,0,0,216,56V84.465l-3.383,2.706L203.983,63a24,24,0,0,0-42.677-5.082l13.388,8.762A7.914,7.914,0,0,1,178.691,63.534ZM470.85,248.027A24.2,24.2,0,0,0,448,272.452v24.809l-16-4v-4.809a24.2,24.2,0,0,0-22.85-24.425,23.814,23.814,0,0,0-17.715,6.606A24.112,24.112,0,0,0,384,288v24a23.968,23.968,0,0,0,18.179,23.284l26.905,6.726L420.759,352H374.647L352,338.412v-17.96a24.2,24.2,0,0,0-22.85-24.425,23.815,23.815,0,0,0-17.715,6.606A24.112,24.112,0,0,0,304,320v32a24.122,24.122,0,0,0,11.652,20.58l12.275,7.365L295.56,413.013A9.513,9.513,0,0,1,288.981,416,8.9,8.9,0,0,1,280,407.1V320l36-48h44a23.884,23.884,0,0,0,18.742-9.008L402.177,233.7l42.43,6.061a24.123,24.123,0,0,0,20.024-6.455l23.7-19.072a7.942,7.942,0,0,0,.641-.575,24,24,0,0,0-33.941-33.942l-12.118,12.118L416,187.346V176.689L440.2,147.656a24,24,0,0,0-36.876-30.729l-29.757,35.709A24.049,24.049,0,0,0,368,168v31.581L348.465,224H328V168h16a24.011,24.011,0,0,0,20.979-12.344L396.99,98.037a24.2,24.2,0,0,0-8.113-32.448,23.807,23.807,0,0,0-18.694-2.828,24.111,24.111,0,0,0-14.933,11.57L329.878,120H328V56.452a24.2,24.2,0,0,0-22.85-24.425,23.823,23.823,0,0,0-17.715,6.606A24.112,24.112,0,0,0,280,56v69.8a24,24,0,0,0-27.073,39.391L280,187.747V208h16V184a8,8,0,0,0-2.878-6.146L263.17,152.9A8,8,0,0,1,273.413,140.6l9.465,7.888A8,8,0,0,0,296,142.345V56a8,8,0,0,1,8.4-7.991,8.328,8.328,0,0,1,7.6,8.443V128a8,8,0,0,0,8,8h14.585a8,8,0,0,0,6.994-4.115L369.236,82.1a8,8,0,0,1,11.222-2.907A8.327,8.327,0,0,1,383,90.266l-32.011,57.619A8,8,0,0,1,344,152H320a8,8,0,0,0-8,8v72a8,8,0,0,0,8,8h32.31a8,8,0,0,0,6.247-3l23.69-29.613a8,8,0,0,0,1.753-5V168a8.02,8.02,0,0,1,1.854-5.122l29.757-35.708A8,8,0,0,1,427.9,137.413l-26.049,31.258A8,8,0,0,0,400,173.793v20.33a8,8,0,0,0,6.685,7.891l37.656,6.278a7.989,7.989,0,0,0,6.972-2.234l15.029-15.029A8,8,0,0,1,477.9,202.084l-23.606,19a7.942,7.942,0,0,0-.641.575,8.04,8.04,0,0,1-6.788,2.263l-46.953-6.708a7.993,7.993,0,0,0-7.378,2.922L366.248,253A7.961,7.961,0,0,1,360,256H312a8,8,0,0,0-6.4,3.2l-40,53.333a8,8,0,0,0-1.6,4.8V407.1A24.9,24.9,0,0,0,288.892,432h.237A25.606,25.606,0,0,0,307,424.2L346.45,383.9a8,8,0,0,0-1.6-12.456L323.884,358.86A8.04,8.04,0,0,1,320,352V320a8,8,0,0,1,8.4-7.991,8.328,8.328,0,0,1,7.6,8.443v22.489a8,8,0,0,0,3.884,6.86l28.432,17.059a8,8,0,0,0,4.116,1.14h52.074a8,8,0,0,0,6.146-2.878l18.883-22.661a8,8,0,0,0-4.205-12.882l-39.27-9.818A7.988,7.988,0,0,1,400,312V288a8,8,0,0,1,8.4-7.991,8.328,8.328,0,0,1,7.6,8.443v11.055a8,8,0,0,0,6.06,7.762l32,8a8,8,0,0,0,9.94-7.762V272.452a8.328,8.328,0,0,1,7.6-8.443A8,8,0,0,1,480,272v56a8.02,8.02,0,0,1-1.854,5.122l-12.292,14.75,12.292,10.243,12.291-14.75A24.045,24.045,0,0,0,496,328V272a24.112,24.112,0,0,0-7.435-17.367A23.8,23.8,0,0,0,470.85,248.027ZM61.563,391.365A23.937,23.937,0,0,0,80,400h54.706l62.334,64H144v16H368V464H314.96l62.334-64H432a23.94,23.94,0,0,0,18.438-8.635l19.708-23.651-12.292-10.243-19.708,23.65A7.979,7.979,0,0,1,432,384H373.919a8,8,0,0,0-5.731,2.418L292.625,464h-73.25l-75.563-77.582A8,8,0,0,0,138.081,384H80a7.981,7.981,0,0,1-6.146-2.878l-40-48A8.02,8.02,0,0,1,32,328V312H16v16a24.05,24.05,0,0,0,5.562,15.365Z"
       id="path1" />
  </g>
</svg>
