<svg viewBox="0 0 200 300" xmlns="http://www.w3.org/2000/svg">
  <!-- Main leaf shape -->
  <path d="M100 10 
           C120 30, 140 60, 150 100
           C155 140, 150 180, 140 220
           C130 250, 110 270, 100 290
           C90 270, 70 250, 60 220
           C50 180, 45 140, 50 100
           C60 60, 80 30, 100 10 Z" 
        fill="url(#leafGradient)" 
        stroke="#065f46" 
        stroke-width="2"/>
  
  <!-- Central vein -->
  <path d="M100 15 L100 285" 
        stroke="#065f46" 
        stroke-width="3" 
        fill="none"/>
  
  <!-- Side veins -->
  <path d="M100 50 L80 70 M100 50 L120 70
           M100 80 L75 100 M100 80 L125 100
           M100 120 L70 140 M100 120 L130 140
           M100 160 L75 180 M100 160 L125 180
           M100 200 L80 220 M100 200 L120 220" 
        stroke="#059669" 
        stroke-width="1.5" 
        fill="none" 
        opacity="0.7"/>
  
  <!-- Gradient definition -->
  <defs>
    <linearGradient id="leafGradient" x1="0%" y1="0%" x2="100%" y2="100%">
      <stop offset="0%" style="stop-color:#16a34a;stop-opacity:1" />
      <stop offset="50%" style="stop-color:#059669;stop-opacity:1" />
      <stop offset="100%" style="stop-color:#065f46;stop-opacity:1" />
    </linearGradient>
    
    <!-- Drop shadow filter -->
    <filter id="leafShadow" x="-20%" y="-20%" width="140%" height="140%">
      <feDropShadow dx="0" dy="4" stdDeviation="3" flood-color="rgba(0,0,0,0.3)"/>
    </filter>
  </defs>
  
  <!-- Apply shadow -->
  <use href="#leafPath" filter="url(#leafShadow)"/>
</svg>