<?xml version="1.0" encoding="UTF-8" standalone="no"?>
<svg
   version="1.1"
   x="0px"
   y="0px"
   viewBox="0 0 32 40"
   style="enable-background:new 0 0 32 32;"
   xml:space="preserve"
   id="svg2"
   sodipodi:docname="plant.svg"
   inkscape:version="1.4.2 (ebf0e940d0, 2025-05-08)"
   xmlns:inkscape="http://www.inkscape.org/namespaces/inkscape"
   xmlns:sodipodi="http://sodipodi.sourceforge.net/DTD/sodipodi-0.dtd"
   xmlns="http://www.w3.org/2000/svg"
   xmlns:svg="http://www.w3.org/2000/svg"><defs
     id="defs2" /><sodipodi:namedview
     id="namedview2"
     pagecolor="#ffffff"
     bordercolor="#000000"
     borderopacity="0.25"
     inkscape:showpageshadow="2"
     inkscape:pageopacity="0.0"
     inkscape:pagecheckerboard="0"
     inkscape:deskcolor="#d1d1d1"
     inkscape:zoom="10.1"
     inkscape:cx="16.039604"
     inkscape:cy="67.524752"
     inkscape:window-width="1017"
     inkscape:window-height="607"
     inkscape:window-x="0"
     inkscape:window-y="0"
     inkscape:window-maximized="1"
     inkscape:current-layer="svg2" /><path
     d="M20.33,13.79c-0.01,0.12-0.03,0.23-0.06,0.34c0.03-0.02,0.07-0.04,0.11-0.04c0.03-0.01,0.06-0.01,0.09-0.01  c0.06,0,0.11,0.01,0.16,0.02c0.09,0.02,0.19,0.04,0.26,0.11c0.08,0.08,0.1,0.21,0.05,0.33c-0.04,0.1-0.12,0.18-0.24,0.23  c-0.11,0.05-0.23,0.06-0.31,0.06c-0.13,0.01-0.27,0-0.4-0.02c-0.06,0.12-0.13,0.23-0.19,0.34c0.05-0.01,0.1-0.02,0.16-0.02  c0.07,0,0.14,0.01,0.21,0.04c0.08,0.03,0.14,0.08,0.18,0.14c0.05,0.07,0.06,0.16,0.04,0.23c-0.02,0.08-0.09,0.16-0.19,0.19  c-0.08,0.03-0.18,0.04-0.25,0.04c-0.18,0-0.35-0.03-0.5-0.09c-0.08,0.12-0.16,0.23-0.23,0.35c0.04-0.01,0.09-0.02,0.13-0.02  c0.08,0,0.17,0.02,0.25,0.05c0.03,0.01,0.06,0.03,0.09,0.06c0.03,0.05,0.03,0.13-0.02,0.2c-0.07,0.1-0.18,0.18-0.33,0.23  c-0.15,0.05-0.31,0.06-0.46,0.04c-0.08,0.13-0.15,0.26-0.22,0.4c0.04-0.01,0.09-0.01,0.14-0.01c0.04,0,0.08,0,0.12,0.01  c0.06,0.01,0.11,0.02,0.17,0.04c0.06,0.04,0.1,0.1,0.11,0.16c0,0.06-0.03,0.12-0.06,0.16c-0.03,0.04-0.06,0.08-0.1,0.11  c-0.05,0.04-0.11,0.05-0.16,0.06c-0.15,0.03-0.31,0.03-0.47,0c-0.05,0.12-0.09,0.24-0.13,0.36c0.07-0.03,0.14-0.05,0.2-0.05  c0.08,0,0.15,0.02,0.21,0.06c0.03,0.02,0.04,0.04,0.05,0.06c0.01,0.03,0.02,0.06,0.02,0.09c-0.01,0.16-0.16,0.26-0.23,0.29  c-0.12,0.06-0.26,0.09-0.4,0.08c-0.02,0.12-0.04,0.24-0.06,0.36c0.04-0.01,0.07-0.01,0.11-0.01c0.06,0,0.12,0.01,0.17,0.03  c0.06,0.02,0.11,0.05,0.15,0.08c0.05,0.05,0.07,0.11,0.06,0.17c-0.01,0.05-0.04,0.1-0.09,0.14c-0.04,0.03-0.09,0.05-0.13,0.06  c-0.1,0.03-0.2,0.05-0.3,0.07c0,0,0,0,0,0c0,0.1,0,0.2,0.01,0.3c0.05-0.04,0.1-0.06,0.17-0.06c0,0,0,0,0.01,0  c0.09,0,0.17,0.03,0.22,0.09c0.1,0.11,0.12,0.29,0.03,0.43c-0.07,0.12-0.2,0.2-0.35,0.22c0.05,0.31,0.12,0.62,0.19,0.94  c0,0.02,0.01,0.04,0.01,0.06c0.05-0.1,0.11-0.2,0.19-0.29c0.06-0.08,0.12-0.15,0.19-0.22c0,0,0,0,0,0c-0.17-0.12-0.14-0.54-0.1-0.67  c0,0,0,0,0,0c0.01-0.04,0.04-0.11,0.09-0.15c0.04-0.03,0.08-0.05,0.12-0.05c0.02,0,0.04,0,0.06,0.01c0.03,0.01,0.05,0.03,0.07,0.05  c0.11,0.12,0.16,0.26,0.15,0.38c0.08-0.09,0.15-0.17,0.21-0.26c0.03-0.04,0.05-0.07,0.07-0.11c-0.07-0.03-0.14-0.11-0.22-0.2  c-0.01-0.02-0.03-0.03-0.04-0.04c-0.07-0.08-0.15-0.17-0.19-0.29c-0.02-0.08-0.01-0.19,0.07-0.25c0.04-0.03,0.09-0.04,0.13-0.04  c0.02,0,0.03,0,0.05,0c0.03,0,0.06,0,0.09,0.01c0.09,0.03,0.16,0.11,0.2,0.17c0.05,0.06,0.09,0.12,0.12,0.19  c0.06-0.18,0.11-0.37,0.13-0.55c-0.2,0.09-0.5-0.03-0.66-0.16c-0.08-0.07-0.13-0.14-0.15-0.21c-0.03-0.1,0-0.2,0.07-0.26  c0.04-0.04,0.1-0.06,0.19-0.07c0.02,0,0.04,0,0.06,0c0.15,0,0.3,0.05,0.42,0.14c0.03,0.02,0.07,0.06,0.11,0.1  c0-0.14-0.01-0.27-0.02-0.41c-0.1-0.04-0.18-0.1-0.26-0.16c-0.05-0.04-0.11-0.08-0.15-0.14c-0.06-0.08-0.08-0.18-0.08-0.31  c0-0.04,0-0.08,0.02-0.12c0.04-0.08,0.13-0.13,0.21-0.13c0.03,0,0.07,0.01,0.1,0.02c0.01,0,0.02,0.01,0.02,0.01  c-0.04-0.16-0.08-0.3-0.12-0.43c-0.03-0.09,0.02-0.18,0.11-0.21c0.02-0.01,0.03-0.01,0.05-0.01c0.07,0,0.13,0.04,0.16,0.11  c0.06,0.19,0.13,0.42,0.18,0.68c0.02-0.03,0.05-0.06,0.08-0.08c0.1-0.09,0.21-0.13,0.32-0.13c0.01,0,0.03,0,0.04,0  c0.15,0.02,0.27,0.13,0.29,0.26c0.01,0.06,0,0.12-0.02,0.19c-0.07,0.18-0.22,0.3-0.35,0.41c-0.08,0.06-0.16,0.12-0.25,0.18  c0.01,0.21,0.01,0.42-0.02,0.63c0.03-0.02,0.07-0.04,0.1-0.06c0.06-0.02,0.13-0.03,0.2-0.03c0.01,0,0.02,0,0.04,0  c0.13,0.01,0.23,0.05,0.28,0.13c0.07,0.11,0.02,0.26-0.06,0.35c-0.16,0.2-0.42,0.33-0.73,0.36c-0.08,0.21-0.18,0.42-0.31,0.61  c0.06,0,0.13,0.01,0.2,0.02c0.13,0.03,0.23,0.07,0.3,0.14c0.09,0.09,0.13,0.22,0.09,0.32c-0.03,0.07-0.1,0.13-0.19,0.16  c-0.08,0.03-0.16,0.03-0.23,0.03c-0.21,0-0.43-0.02-0.68-0.07c-0.11,0.11-0.21,0.22-0.3,0.34c-0.15,0.19-0.24,0.4-0.27,0.62  c0.02-0.02,0.04-0.04,0.07-0.06c0.1-0.08,0.23-0.12,0.35-0.12c0.03,0,0.06,0,0.09,0.01c0.11,0.02,0.25,0.09,0.29,0.22  c0.02,0.08,0.01,0.17-0.04,0.24c-0.04,0.06-0.09,0.11-0.17,0.17c-0.16,0.12-0.35,0.19-0.54,0.25c0.03,0.21,0.05,0.43,0.05,0.64  c0,0,0,0,0,0c0.05-0.04,0.1-0.07,0.15-0.1c0.12-0.07,0.27-0.1,0.41-0.1c0.07,0,0.13,0.01,0.2,0.02c0.1,0.02,0.17,0.06,0.21,0.12  c0.04,0.05,0.05,0.12,0.05,0.19c-0.01,0.14-0.09,0.29-0.22,0.4c-0.13,0.1-0.28,0.16-0.4,0.2c-0.16,0.05-0.31,0.08-0.45,0.09  c-0.04,0.25-0.09,0.5-0.16,0.74c0.17-0.09,0.36-0.14,0.55-0.14c0.03,0,0.07,0,0.1,0c0.15,0.01,0.27,0.06,0.35,0.13  c0.11,0.09,0.16,0.24,0.13,0.36c-0.05,0.15-0.2,0.23-0.32,0.28c-0.35,0.14-0.73,0.2-1.11,0.16c-0.07,0.16-0.16,0.31-0.24,0.46  c-0.04,0.07-0.08,0.13-0.12,0.19c0.07-0.02,0.15-0.03,0.24-0.03c0.05,0,0.11,0,0.17,0.01c0.13,0.02,0.25,0.05,0.38,0.1  c0.16,0.06,0.25,0.15,0.28,0.25c0.02,0.07,0.01,0.14-0.03,0.21c-0.05,0.08-0.14,0.15-0.24,0.18c-0.16,0.04-0.33-0.01-0.47-0.05  l-0.35-0.1c-0.02-0.01-0.05-0.01-0.07-0.02c-0.09-0.02-0.18-0.04-0.24-0.08c-0.15,0.19-0.3,0.37-0.45,0.55c0.01,0,0.01,0,0.02,0  c0.05,0,0.11,0,0.16,0.01c0.14,0.02,0.33,0.08,0.44,0.24c0.1,0.14,0.12,0.37-0.02,0.5c-0.1,0.1-0.26,0.12-0.48,0.07  c-0.22-0.05-0.42-0.14-0.62-0.23c-0.03,0.04-0.06,0.08-0.09,0.12c-0.01,0.01-0.01,0.01-0.02,0.02c0.12,0.03,0.22,0.09,0.29,0.15  c0.03,0.03,0.07,0.06,0.09,0.1c0.02,0.05,0.01,0.12-0.03,0.15c-0.05,0.04-0.12,0.03-0.16,0.02c-0.15-0.03-0.29-0.08-0.41-0.16  c-0.04,0.05-0.08,0.1-0.13,0.14c-0.04,0.05-0.08,0.09-0.12,0.14c0.04,0,0.08,0.01,0.12,0.02c0.11,0.04,0.2,0.1,0.24,0.19  c0.05,0.1,0.02,0.24-0.09,0.3c-0.06,0.03-0.13,0.03-0.18,0.02c-0.16-0.01-0.31-0.03-0.44-0.09c-0.12,0.19-0.2,0.4-0.23,0.65  c0.04,0.45,0.16,0.84,0.38,1.16c0.05,0.08,0.03,0.18-0.04,0.23c-0.08,0.05-0.18,0.03-0.23-0.04c-0.24-0.35-0.38-0.77-0.43-1.25  c-0.01-0.02-0.01-0.05-0.01-0.08c0-0.01,0-0.02,0-0.03c-0.01-0.16-0.01-0.33,0-0.51c-0.04-0.07-0.08-0.14-0.12-0.22  c-0.04,0.02-0.09,0.03-0.13,0.04c-0.1,0.01-0.19-0.02-0.25-0.08c-0.08-0.08-0.09-0.21-0.03-0.3c0.03-0.05,0.09-0.08,0.14-0.09  c-0.03-0.04-0.05-0.08-0.08-0.12c-0.09,0.05-0.18,0.08-0.26,0.09c-0.12,0.02-0.23-0.02-0.31-0.09c-0.09-0.08-0.12-0.22-0.06-0.32  c0.03-0.06,0.09-0.11,0.18-0.15c0.03-0.01,0.06-0.02,0.08-0.03c-0.04-0.05-0.07-0.09-0.11-0.14c-0.07,0.06-0.15,0.12-0.24,0.15  c-0.11,0.05-0.2,0.05-0.27,0.01c-0.05-0.03-0.09-0.08-0.12-0.15c-0.02-0.06-0.02-0.12-0.02-0.18c0-0.04,0-0.08,0.02-0.11  c0.01-0.03,0.04-0.06,0.08-0.09c0.04-0.03,0.09-0.06,0.14-0.07c-0.03-0.03-0.06-0.06-0.08-0.08c-0.04,0.05-0.09,0.1-0.14,0.14  c-0.05,0.04-0.11,0.09-0.19,0.08c-0.07,0-0.13-0.05-0.17-0.13c-0.03-0.06-0.03-0.13-0.04-0.19c0-0.05,0-0.11,0.03-0.16  c0.03-0.05,0.09-0.08,0.14-0.09c-0.03-0.03-0.06-0.06-0.1-0.09c-0.01,0-0.01-0.01-0.02-0.01c-0.07,0.09-0.18,0.15-0.31,0.16  c-0.08,0.01-0.13,0-0.18-0.02c-0.1-0.05-0.14-0.16-0.17-0.28c-0.02-0.07-0.03-0.16,0.01-0.23c0.03-0.04,0.08-0.08,0.15-0.1  c-0.08-0.08-0.16-0.17-0.24-0.26c-0.02,0.01-0.04,0.02-0.06,0.03c-0.09,0.04-0.22,0.08-0.34,0.03c-0.06-0.03-0.12-0.08-0.15-0.15  c-0.02-0.05-0.02-0.11,0-0.16c0.03-0.07,0.1-0.12,0.18-0.13c0.01,0,0.02,0,0.04,0c0.02,0,0.05,0,0.07,0.01  c-0.05-0.09-0.1-0.19-0.14-0.28c-0.06,0.01-0.12,0.02-0.18,0.02c-0.11,0-0.21-0.05-0.27-0.12c-0.04-0.04-0.06-0.09-0.07-0.14  c-0.03-0.08-0.05-0.19,0.01-0.27c0.05-0.07,0.13-0.09,0.19-0.09c0.01,0,0.02,0,0.03,0c0.04,0,0.07,0.01,0.1,0.03  c-0.03-0.13-0.06-0.26-0.08-0.39c-0.15-0.01-0.3-0.09-0.38-0.22c-0.05-0.09-0.07-0.18-0.05-0.27c0.03-0.1,0.11-0.18,0.21-0.18  c0.01,0,0.01,0,0.02,0c0.05,0,0.09,0.01,0.13,0.04c-0.01-0.11-0.01-0.21-0.02-0.32c-0.05-0.01-0.11-0.02-0.16-0.04  c-0.12-0.04-0.21-0.12-0.26-0.22c-0.05-0.12-0.02-0.26,0.07-0.33c0.04-0.03,0.1-0.05,0.15-0.05c0.04,0,0.08,0.01,0.13,0.03  c0.02,0.01,0.03,0.02,0.05,0.03c0-0.13,0-0.25-0.01-0.38c-0.06,0-0.11-0.02-0.16-0.06c-0.09-0.06-0.16-0.17-0.18-0.3  c-0.01-0.03-0.01-0.08,0-0.12c0.03-0.08,0.12-0.12,0.2-0.12c0.01,0,0.02,0,0.03,0c0.04,0.01,0.08,0.02,0.12,0.04  c0-0.09,0.01-0.18,0.02-0.27c-0.02-0.01-0.05-0.02-0.07-0.04c-0.05-0.04-0.09-0.1-0.12-0.18c-0.03-0.07-0.05-0.14-0.06-0.21  c-0.01-0.05-0.01-0.11,0.02-0.16c0.03-0.06,0.1-0.08,0.16-0.08c0.04,0,0.07,0.01,0.1,0.02c0.02,0.01,0.04,0.02,0.06,0.04  c0,0,0-0.01,0-0.01c0.03-0.16,0.08-0.31,0.13-0.46c-0.06-0.03-0.12-0.06-0.17-0.1c-0.11-0.09-0.16-0.2-0.14-0.3  c0.01-0.05,0.04-0.1,0.1-0.15c0.09-0.08,0.19-0.12,0.28-0.12c0.01,0,0.02,0,0.04,0c0.05,0.01,0.09,0.02,0.13,0.05  c0.08-0.17,0.16-0.33,0.24-0.49c-0.03-0.05-0.07-0.1-0.1-0.15c-0.2,0.04-0.43,0.02-0.65-0.06c-0.16-0.06-0.36-0.17-0.46-0.38  c-0.09-0.18-0.06-0.45,0.13-0.57c0.07-0.04,0.15-0.06,0.25-0.06c0.01,0,0.02,0,0.03,0c0.11,0,0.21,0.03,0.3,0.08  c-0.03-0.17-0.06-0.34-0.07-0.52c-0.11-0.06-0.21-0.16-0.29-0.26c-0.16-0.2-0.34-0.46-0.35-0.77c0-0.04,0-0.1,0.04-0.14  c0.03-0.04,0.09-0.06,0.15-0.06c0.14,0,0.26,0.1,0.33,0.17c0.06,0.07,0.11,0.15,0.15,0.23c0.02-0.15,0.05-0.3,0.08-0.46  c-0.04-0.02-0.07-0.05-0.1-0.08c-0.15-0.14-0.26-0.33-0.32-0.53c-0.04-0.16-0.04-0.37,0.11-0.46c0.04-0.03,0.1-0.04,0.15-0.04  c0.04,0,0.07,0.01,0.11,0.02c0.07,0.03,0.14,0.08,0.2,0.15c0.03,0.03,0.05,0.07,0.07,0.11c0.02-0.07,0.05-0.14,0.08-0.21  c0.04-0.1,0.08-0.19,0.11-0.29c0.01-0.01,0.01-0.03,0.02-0.04c-0.22-0.07-0.4-0.2-0.48-0.38c-0.04-0.08-0.06-0.18-0.06-0.3  c0-0.07,0-0.15,0.04-0.22c0.05-0.1,0.17-0.16,0.29-0.16c0.02,0,0.03,0,0.05,0c0.12,0.02,0.23,0.08,0.32,0.19  c0.04,0.04,0.07,0.09,0.09,0.15c0.05-0.16,0.08-0.32,0.1-0.48c-0.33-0.06-0.61-0.31-0.72-0.63c-0.03-0.08-0.06-0.24,0.03-0.35  c0.06-0.06,0.14-0.09,0.22-0.09c0.04,0,0.08,0.01,0.12,0.02c0.1,0.03,0.19,0.09,0.27,0.16c-0.06-0.21-0.13-0.41-0.21-0.62  c-0.01-0.03-0.02-0.06-0.03-0.08c-0.31,0.01-0.63-0.15-0.79-0.42c-0.09-0.16-0.12-0.39,0.02-0.52c0.05-0.05,0.12-0.08,0.21-0.1  c0.02,0,0.04-0.01,0.07-0.01c0.03,0,0.06,0,0.08,0.01c0.05,0.02,0.08,0.05,0.12,0.08c0,0,0.01,0.01,0.01,0.01  c-0.03-0.18-0.05-0.37-0.06-0.56c-0.16,0.04-0.35-0.01-0.49-0.14c-0.11-0.11-0.19-0.27-0.24-0.48c-0.03-0.13-0.03-0.3,0.09-0.39  c0.07-0.06,0.17-0.07,0.26-0.07c0.08,0,0.16,0,0.24,0.04c0.09,0.04,0.16,0.12,0.21,0.2c0.04-0.2,0.1-0.39,0.17-0.58  C12,9.17,11.84,8.83,11.78,8.47c-0.01-0.05-0.03-0.2,0.07-0.29c0.04-0.03,0.08-0.04,0.12-0.04c0.08,0,0.16,0.04,0.22,0.1  c0.11,0.1,0.18,0.24,0.22,0.41c0.02,0.1,0.03,0.2,0.04,0.31c0.08-0.15,0.18-0.29,0.28-0.43c0.03-0.04,0.08-0.07,0.13-0.07  c0.03,0,0.07,0.01,0.1,0.03c0.07,0.06,0.09,0.16,0.03,0.23c-0.12,0.16-0.22,0.33-0.31,0.5c0.03-0.02,0.06-0.04,0.09-0.05  c0.07-0.04,0.15-0.09,0.24-0.09c0.01,0,0.01,0,0.02,0c0.07,0,0.15,0.03,0.21,0.09c0.07,0.07,0.12,0.17,0.13,0.26  c0.01,0.16-0.09,0.33-0.24,0.44c-0.15,0.1-0.33,0.14-0.47,0.16c-0.1,0.01-0.18,0.02-0.26,0.02c-0.03,0.12-0.05,0.24-0.06,0.36  c0.03-0.03,0.06-0.05,0.09-0.07c0.07-0.05,0.16-0.07,0.24-0.07c0.05,0,0.1,0.01,0.14,0.03c0.13,0.05,0.22,0.19,0.21,0.32  c-0.02,0.18-0.19,0.28-0.3,0.33c-0.12,0.06-0.26,0.09-0.39,0.1c0.01,0.19,0.04,0.39,0.09,0.58c0,0.02,0.01,0.03,0.01,0.05  c0.01-0.06,0.03-0.11,0.05-0.16c0.05-0.13,0.12-0.22,0.2-0.27c0.05-0.03,0.11-0.05,0.17-0.05c0.06,0,0.13,0.02,0.18,0.07  c0.07,0.07,0.08,0.18,0.08,0.26c0,0.37-0.14,0.74-0.39,1.02c0.05,0.14,0.1,0.27,0.14,0.41c0.01-0.01,0.02-0.02,0.03-0.03  c0.08-0.08,0.17-0.17,0.29-0.18c0.01,0,0.02,0,0.03,0c0.13,0,0.25,0.1,0.31,0.19c0.07,0.11,0.09,0.23,0.07,0.33  c-0.02,0.08-0.07,0.15-0.12,0.21c-0.14,0.16-0.3,0.31-0.48,0.43c-0.01,0.2-0.05,0.4-0.1,0.59c0.07-0.02,0.15-0.04,0.23-0.04  c0.02,0,0.04,0,0.06,0c0.13,0.01,0.3,0.08,0.35,0.24c0.02,0.09,0,0.19-0.06,0.27c-0.06,0.08-0.15,0.13-0.21,0.16  c-0.2,0.1-0.42,0.16-0.64,0.16c-0.01,0.02-0.01,0.03-0.02,0.05c-0.04,0.1-0.08,0.19-0.11,0.29c-0.01,0.03-0.03,0.07-0.04,0.1  c0.11-0.04,0.23-0.05,0.31-0.05c0,0,0.01,0,0.01,0c0.07,0,0.17,0.01,0.26,0.04c0.09,0.04,0.16,0.12,0.19,0.2  c0.03,0.1-0.01,0.21-0.08,0.29c-0.07,0.08-0.17,0.12-0.25,0.16c-0.21,0.09-0.44,0.13-0.67,0.13c-0.04,0.18-0.08,0.36-0.1,0.55  c0.04-0.03,0.08-0.05,0.13-0.06c0.06-0.02,0.11-0.03,0.17-0.03c0.12,0,0.23,0.04,0.33,0.11c0.08,0.06,0.16,0.18,0.13,0.3  c-0.03,0.12-0.15,0.18-0.24,0.21c-0.18,0.07-0.37,0.11-0.56,0.13c0,0.14,0.02,0.28,0.04,0.41c0.02-0.06,0.04-0.12,0.07-0.17  c0.02-0.04,0.05-0.09,0.1-0.12c0.04-0.02,0.08-0.03,0.13-0.03c0.03,0,0.06,0,0.08,0.01c0.07,0.01,0.16,0.03,0.23,0.11  c0.05,0.06,0.08,0.14,0.07,0.24c-0.01,0.15-0.06,0.3-0.16,0.45c-0.08,0.11-0.18,0.21-0.27,0.31c0,0.01,0.01,0.01,0.01,0.02  c0.04,0.08,0.09,0.16,0.13,0.24c0.1-0.19,0.21-0.39,0.31-0.57c0.07-0.13,0.14-0.26,0.21-0.38c-0.1-0.09-0.17-0.22-0.19-0.35  c-0.02-0.1,0-0.24,0.1-0.3c0.03-0.02,0.06-0.02,0.09-0.02c0.06,0,0.12,0.02,0.15,0.04c0.05,0.02,0.09,0.06,0.13,0.09  c0.02-0.04,0.04-0.08,0.06-0.12c-0.02-0.01-0.05-0.03-0.07-0.04c-0.07-0.05-0.12-0.13-0.16-0.23c-0.05-0.14-0.06-0.27-0.02-0.38  c0.05-0.12,0.17-0.21,0.28-0.21c0.01,0,0.02,0,0.04,0c0.06,0.01,0.13,0.04,0.19,0.1c0.02,0.02,0.04,0.04,0.05,0.06  c0.04-0.09,0.08-0.18,0.11-0.27c-0.09-0.15-0.16-0.34-0.18-0.56c-0.01-0.06-0.01-0.13,0.01-0.19c0.03-0.08,0.09-0.13,0.16-0.13  c0,0,0,0,0,0c0.1,0,0.17,0.11,0.19,0.14c0.02,0.03,0.03,0.06,0.05,0.08c0.05-0.17,0.1-0.33,0.14-0.5c-0.03-0.02-0.05-0.05-0.07-0.07  c-0.17-0.2-0.26-0.48-0.23-0.74c0.01-0.05,0.02-0.11,0.06-0.15c0.03-0.02,0.07-0.04,0.11-0.04c0.02,0,0.04,0,0.06,0.01  c0.05,0.02,0.09,0.05,0.13,0.08c0.04,0.04,0.08,0.09,0.12,0.13c0.02-0.12,0.04-0.24,0.06-0.36c-0.18-0.06-0.34-0.19-0.42-0.36  c-0.04-0.09-0.05-0.17-0.03-0.25c0.02-0.1,0.09-0.17,0.18-0.19c0.01,0,0.02,0,0.04,0c0.04,0,0.09,0.01,0.15,0.04  c0.06,0.03,0.12,0.08,0.17,0.13c0.01-0.1,0.02-0.21,0.02-0.31c-0.11-0.03-0.21-0.1-0.28-0.19c-0.09-0.11-0.15-0.24-0.17-0.4  c-0.01-0.06-0.01-0.15,0.03-0.22c0.03-0.06,0.1-0.11,0.17-0.11c0.01,0,0.03,0,0.05,0.01c0.04,0.01,0.08,0.04,0.1,0.07l0.13,0.12  c0-0.17,0-0.33-0.01-0.5c-0.14-0.01-0.27-0.07-0.37-0.16c-0.14-0.14-0.2-0.35-0.15-0.54c0.01-0.03,0.02-0.06,0.04-0.08  c0.03-0.03,0.07-0.04,0.1-0.04c0.02,0,0.03,0,0.05,0c0.09,0,0.18,0.03,0.27,0.07c-0.02-0.16-0.04-0.31-0.06-0.47c0,0,0,0,0-0.01  c-0.08,0-0.17-0.01-0.25-0.03c-0.09-0.02-0.16-0.06-0.21-0.1c-0.08-0.07-0.13-0.17-0.13-0.27c0-0.11,0.04-0.21,0.13-0.27  c0.04-0.03,0.08-0.04,0.11-0.04c0,0,0.01,0,0.01,0c0.04,0,0.08,0.01,0.12,0.04c0.04,0.02,0.08,0.06,0.12,0.09  c-0.03-0.14-0.06-0.29-0.09-0.43c-0.09,0.02-0.18,0.03-0.27,0.02c-0.14-0.01-0.26-0.07-0.33-0.16c-0.05-0.06-0.08-0.14-0.1-0.24  c-0.01-0.06-0.02-0.14,0.01-0.21c0.05-0.12,0.17-0.18,0.29-0.18c0.04,0,0.07,0,0.1,0.01c0.06,0.02,0.11,0.04,0.15,0.08  c-0.02-0.08-0.03-0.17-0.05-0.25c-0.09-0.01-0.19-0.05-0.27-0.09c-0.1-0.05-0.2-0.1-0.29-0.18c-0.07-0.05-0.21-0.2-0.19-0.39  c0.01-0.04,0.02-0.08,0.05-0.11c0.03-0.04,0.08-0.06,0.14-0.07c0.02,0,0.04,0,0.06,0c0.09,0,0.18,0.03,0.27,0.08  c0.04,0.02,0.08,0.05,0.12,0.09c-0.03-0.19-0.05-0.38-0.06-0.58c-0.1,0-0.2-0.02-0.3-0.06c-0.12-0.04-0.21-0.1-0.27-0.18  c-0.05-0.06-0.08-0.12-0.1-0.2c-0.02-0.08-0.02-0.15,0.01-0.22c0.03-0.08,0.09-0.14,0.17-0.15c0.02,0,0.03-0.01,0.05-0.01  c0.07,0,0.14,0.03,0.2,0.06c0.08,0.05,0.16,0.1,0.24,0.16c0.01-0.19,0.02-0.38,0.05-0.57c-0.22-0.1-0.4-0.3-0.46-0.53  c-0.03-0.1-0.02-0.19,0-0.27c0.04-0.1,0.13-0.17,0.22-0.17c0,0,0.01,0,0.01,0c0.06,0,0.12,0.03,0.17,0.06  c0.11,0.06,0.18,0.12,0.23,0.19c0.06-0.18,0.12-0.36,0.19-0.53c-0.16-0.04-0.3-0.17-0.36-0.33c-0.07-0.19-0.02-0.4,0.12-0.54  c0.03-0.03,0.06-0.05,0.09-0.07c0.05-0.02,0.1-0.02,0.15-0.03c0.02,0,0.04,0,0.06,0c0.08,0,0.17,0.01,0.24,0.06  c0.01,0.01,0.02,0.02,0.03,0.02c0-0.01,0.01-0.02,0.01-0.03c0.05-0.15,0.1-0.31,0.14-0.46c-0.13-0.05-0.25-0.15-0.32-0.25  c-0.06-0.09-0.13-0.22-0.12-0.37c0.01-0.15,0.1-0.28,0.23-0.33c0.04-0.01,0.07-0.02,0.11-0.02c0.1,0,0.2,0.05,0.27,0.1  c0.03-0.2,0.05-0.4,0.05-0.6c-0.05,0-0.1-0.02-0.15-0.05c-0.06-0.04-0.11-0.09-0.15-0.17c-0.09-0.15-0.13-0.32-0.11-0.49  c0-0.04,0.01-0.08,0.03-0.11c0.04-0.07,0.11-0.11,0.2-0.11c0,0,0,0,0.01,0c0.06,0,0.12,0.02,0.17,0.04  c-0.01-0.12-0.02-0.24-0.04-0.36C14.87,1.1,14.93,1.01,15.02,1c0.01,0,0.01,0,0.02,0c0.08,0,0.15,0.06,0.16,0.14  c0.03,0.22,0.05,0.45,0.06,0.67c0,0,0.01,0,0.01-0.01c0.06-0.04,0.13-0.04,0.18-0.04c0.01,0,0.01,0,0.02,0  c0.06,0,0.12,0.01,0.18,0.04c0.11,0.06,0.17,0.2,0.14,0.34c-0.02,0.11-0.11,0.22-0.22,0.29c-0.1,0.06-0.22,0.1-0.32,0.12  c0,0.06-0.01,0.13-0.01,0.19c0.02-0.01,0.04-0.02,0.06-0.03c0.06-0.02,0.12-0.03,0.18-0.03c0.11,0,0.2,0.03,0.28,0.05  c0.03,0.01,0.06,0.03,0.09,0.05c0.03,0.03,0.05,0.07,0.05,0.11c0.03,0.15-0.04,0.31-0.18,0.42c-0.08,0.07-0.18,0.11-0.26,0.14  c-0.12,0.05-0.24,0.1-0.35,0.15c-0.04,0.19-0.09,0.38-0.14,0.57c0.06-0.02,0.12-0.03,0.19-0.03c0.05,0,0.1,0,0.15,0.01  c0.09,0.02,0.16,0.05,0.21,0.09c0.07,0.06,0.11,0.14,0.1,0.22c-0.01,0.09-0.07,0.17-0.19,0.24c-0.21,0.13-0.46,0.18-0.71,0.17  c-0.03,0.08-0.06,0.16-0.09,0.24c-0.01,0.02-0.01,0.03-0.02,0.05c0.01,0,0.02,0,0.03,0c0.01,0,0.02,0,0.03,0  c0.14,0,0.28,0.06,0.38,0.17c0.08,0.09,0.11,0.19,0.09,0.28c-0.02,0.09-0.09,0.17-0.21,0.24c-0.19,0.1-0.4,0.14-0.61,0.13  c-0.04,0.12-0.07,0.25-0.1,0.37c-0.01,0.03-0.01,0.07-0.02,0.1c0.06-0.02,0.13-0.04,0.2-0.05c0.03,0,0.05,0,0.08,0  c0.11,0,0.2,0.03,0.27,0.08c0.13,0.1,0.15,0.3,0.06,0.44C14.76,7,14.69,7.04,14.63,7.08c-0.16,0.09-0.33,0.16-0.51,0.21  c0,0.14,0.01,0.28,0.02,0.42c0.13-0.05,0.27-0.07,0.41-0.07c0.02,0,0.04,0,0.06,0c0.06,0,0.14,0.01,0.19,0.06  c0.04,0.04,0.06,0.09,0.07,0.16c0.01,0.16-0.07,0.32-0.22,0.44c-0.12,0.1-0.27,0.15-0.41,0.19c0.03,0.18,0.06,0.35,0.1,0.53  c0.02-0.05,0.04-0.09,0.07-0.14c0.07-0.1,0.21-0.19,0.34-0.19c0.04,0,0.08,0.01,0.12,0.02c0.04,0.02,0.07,0.04,0.09,0.06  c0.03,0.04,0.05,0.09,0.05,0.15c0.01,0.13-0.05,0.24-0.1,0.31c-0.06,0.09-0.14,0.16-0.22,0.22c-0.07,0.06-0.15,0.12-0.23,0.18  c0.03,0.12,0.05,0.24,0.08,0.36c0.02-0.03,0.04-0.05,0.06-0.07c0.07-0.06,0.15-0.1,0.23-0.13c0.03-0.01,0.06-0.02,0.1-0.02  c0.01,0,0.01,0,0.02,0c0.06,0.01,0.12,0.05,0.15,0.12c0.02,0.05,0.02,0.11,0.01,0.18c-0.04,0.25-0.22,0.46-0.45,0.55  c0.01,0.06,0.02,0.12,0.03,0.18c0.01,0.04,0.01,0.08,0.02,0.12c0.02-0.04,0.05-0.07,0.1-0.1c0.05-0.03,0.1-0.03,0.14-0.03  c0.01,0,0.02,0,0.03,0c0.12,0,0.23,0.03,0.31,0.08c0.11,0.07,0.18,0.18,0.2,0.3c0.01,0.12-0.04,0.25-0.14,0.35  c-0.08,0.09-0.18,0.15-0.3,0.21c-0.08,0.04-0.16,0.08-0.25,0.1c0.01,0.13,0.01,0.26,0.02,0.39c0.04-0.03,0.08-0.05,0.13-0.06  c0.01,0,0.01,0,0.01,0c0.04,0,0.08,0.01,0.12,0.02c0.07,0.02,0.15,0.05,0.22,0.1c0.08,0.06,0.12,0.14,0.13,0.22  c0.01,0.08-0.03,0.17-0.1,0.24c-0.06,0.06-0.14,0.1-0.2,0.13c-0.1,0.05-0.2,0.09-0.31,0.13c-0.01,0.16-0.02,0.33-0.03,0.49  c0.01-0.01,0.03-0.02,0.05-0.03c0.07-0.04,0.14-0.05,0.22-0.05c0.07,0,0.13,0.01,0.19,0.04c0.13,0.07,0.21,0.21,0.2,0.35  c-0.01,0.1-0.06,0.19-0.14,0.27c-0.06,0.06-0.14,0.1-0.25,0.15c-0.13,0.05-0.25,0.08-0.35,0.07c-0.01,0.08-0.02,0.15-0.04,0.23  c0.05-0.02,0.1-0.03,0.16-0.03c0.09,0,0.2,0.03,0.3,0.08c0.12,0.06,0.19,0.13,0.22,0.22c0.02,0.06,0.02,0.12,0.01,0.17  c0.03-0.03,0.08-0.04,0.13-0.04c0,0,0.01,0,0.01,0c0.09,0,0.16,0.03,0.21,0.08c0.02,0.02,0.03,0.04,0.04,0.06  c0.04-0.09,0.09-0.17,0.13-0.26c-0.06-0.01-0.12-0.05-0.16-0.1c-0.07-0.07-0.1-0.17-0.13-0.25c-0.02-0.07-0.04-0.14-0.03-0.22  c0.01-0.09,0.04-0.16,0.11-0.21c0.05-0.04,0.12-0.05,0.18-0.05c0.02,0,0.04,0,0.05,0c0.02,0,0.05,0,0.07,0.01  c0.08,0.02,0.14,0.09,0.17,0.15c0.01,0.01,0.02,0.03,0.03,0.04c0.04-0.12,0.09-0.23,0.12-0.35c-0.11,0-0.21-0.03-0.3-0.1  c-0.12-0.09-0.2-0.24-0.21-0.39c0-0.09,0.02-0.2,0.12-0.24c0.03-0.02,0.07-0.02,0.09-0.02c0.01,0,0.03,0,0.04,0  c0.13,0,0.27,0.05,0.37,0.13c0.01-0.13,0.01-0.26,0.01-0.4c-0.04-0.01-0.07-0.02-0.1-0.03c-0.08-0.03-0.17-0.07-0.25-0.12  c-0.06-0.04-0.13-0.08-0.19-0.15c-0.06-0.08-0.08-0.17-0.07-0.25c0.02-0.1,0.11-0.18,0.21-0.21c0.03-0.01,0.06-0.01,0.09-0.01  c0.07,0,0.13,0.02,0.2,0.05c0.01,0.01,0.02,0.01,0.03,0.02c-0.02-0.16-0.05-0.31-0.08-0.46c-0.02,0-0.03-0.01-0.05-0.02  c-0.11-0.04-0.21-0.09-0.31-0.16c-0.08-0.05-0.2-0.14-0.22-0.27c-0.01-0.08,0.02-0.17,0.08-0.23c0.05-0.04,0.11-0.06,0.17-0.06  c0.02,0,0.05,0,0.07,0.01c0.06,0.02,0.1,0.05,0.14,0.09c-0.04-0.18-0.07-0.36-0.11-0.54c-0.19,0.06-0.37-0.05-0.49-0.18  c-0.07-0.07-0.11-0.14-0.13-0.22c-0.02-0.09,0-0.19,0.05-0.26c0.05-0.06,0.13-0.09,0.21-0.09c0.05,0,0.1,0.01,0.14,0.03  c0.01,0,0.01,0.01,0.02,0.01c0-0.01,0-0.01,0-0.02c-0.03-0.08-0.05-0.16-0.08-0.24c-0.01-0.03-0.02-0.07-0.04-0.11  c-0.13,0.03-0.28,0-0.39-0.09c-0.13-0.11-0.18-0.29-0.13-0.45c0.02-0.07,0.06-0.12,0.1-0.14c0.03-0.01,0.05-0.02,0.08-0.02  c0.06,0,0.11,0.03,0.16,0.07c-0.01-0.03-0.01-0.07-0.02-0.1c-0.02-0.15-0.03-0.3-0.02-0.45c-0.16-0.04-0.29-0.18-0.37-0.31  c-0.07-0.12-0.09-0.23-0.06-0.32c0.02-0.07,0.07-0.13,0.13-0.16c0.03-0.02,0.06-0.02,0.1-0.02c0.02,0,0.04,0,0.06,0.01  c0.07,0.02,0.11,0.08,0.15,0.13c0.02,0.03,0.04,0.07,0.06,0.1c0.02-0.1,0.04-0.19,0.06-0.29c-0.2-0.09-0.34-0.28-0.39-0.49  c-0.02-0.09-0.01-0.17,0.03-0.23c0.04-0.07,0.12-0.1,0.2-0.1c0.01,0,0.03,0,0.04,0c0.1,0.02,0.18,0.08,0.22,0.13  c0.02,0.03,0.04,0.05,0.06,0.08c0.04-0.13,0.07-0.27,0.11-0.4c-0.03-0.01-0.05-0.02-0.07-0.03c-0.1-0.05-0.23-0.12-0.31-0.24  c-0.04-0.06-0.07-0.14-0.08-0.24c-0.01-0.05-0.01-0.11,0.01-0.17c0.03-0.09,0.13-0.15,0.23-0.15c0,0,0,0,0.01,0  c0.09,0,0.17,0.04,0.25,0.11C15.97,5.67,16,5.7,16.02,5.73c0.02-0.14,0.02-0.27,0.02-0.41c0-0.09,0.07-0.17,0.16-0.17  c0,0,0,0,0.01,0c0.09,0,0.16,0.07,0.16,0.16c0,0.05,0,0.09,0,0.14c0.02,0,0.04-0.01,0.07-0.01c0.02,0,0.04,0,0.07,0  c0.03,0,0.07,0.01,0.1,0.03c0.07,0.05,0.09,0.15,0.05,0.24c-0.03,0.07-0.11,0.12-0.19,0.14c-0.04,0.01-0.09,0.01-0.13,0.01  C16.33,5.91,16.33,5.95,16.32,6c0.02,0,0.04,0,0.05,0c0.07,0,0.15,0.02,0.21,0.06c0.04,0.02,0.07,0.05,0.08,0.08  c0.01,0.02,0.02,0.05,0.02,0.09c0.01,0.13-0.08,0.27-0.22,0.33c-0.08,0.04-0.18,0.05-0.28,0.03c-0.02,0.06-0.03,0.13-0.05,0.19  c0.02,0,0.04,0,0.05,0c0.02,0,0.04,0,0.06,0c0.12,0.02,0.21,0.08,0.24,0.17c0.04,0.11-0.04,0.23-0.13,0.28  c-0.09,0.05-0.2,0.06-0.29,0.06c-0.03,0-0.05,0-0.08,0c-0.03,0.1-0.05,0.19-0.07,0.29c0.02,0,0.04-0.01,0.06-0.01  c0.04,0,0.08,0.01,0.12,0.02c0.07,0.02,0.13,0.04,0.19,0.08c0.07,0.05,0.11,0.13,0.1,0.2c-0.01,0.06-0.04,0.12-0.11,0.17  c-0.13,0.1-0.29,0.15-0.45,0.14c-0.01,0.11-0.01,0.23,0,0.34c0.04-0.02,0.08-0.04,0.13-0.04c0,0,0,0,0.01,0  c0.06,0,0.11,0.02,0.15,0.03c0.11,0.05,0.18,0.12,0.19,0.2c0.01,0.05-0.01,0.11-0.05,0.17c-0.07,0.1-0.19,0.17-0.31,0.18  c0.03,0.11,0.07,0.22,0.11,0.33c0,0,0,0.01,0,0.01c0.05-0.06,0.11-0.11,0.17-0.14c0.07-0.03,0.13-0.05,0.2-0.05  c0.03,0,0.06,0,0.09,0.01c0.08,0.02,0.14,0.06,0.16,0.12c0.01,0.04,0.01,0.08,0.01,0.12c0,0.05-0.01,0.1-0.04,0.14  c-0.04,0.08-0.13,0.13-0.19,0.17c-0.08,0.04-0.16,0.07-0.25,0.09c0.13,0.44,0.22,0.89,0.3,1.34c0.06-0.22,0.14-0.44,0.24-0.65  c-0.07-0.11-0.11-0.21-0.12-0.31c-0.02-0.13,0-0.26,0.07-0.37c0.03-0.04,0.06-0.07,0.09-0.08c0.01,0,0.03-0.01,0.04-0.01  c0.04,0,0.08,0.02,0.12,0.05C16.98,9.9,17,9.94,17.02,9.99c0.01,0.02,0.02,0.05,0.02,0.07c0.02-0.03,0.04-0.07,0.07-0.1  c-0.05-0.04-0.09-0.1-0.12-0.16c-0.04-0.09-0.06-0.18-0.07-0.27c-0.01-0.06-0.02-0.13,0-0.2c0.02-0.08,0.07-0.14,0.14-0.17  c0.02-0.01,0.04-0.01,0.06-0.01c0.04,0,0.09,0.01,0.13,0.04c0.05,0.03,0.09,0.08,0.12,0.12c0.05,0.06,0.08,0.12,0.12,0.18  c0.04-0.04,0.08-0.09,0.13-0.13c-0.1-0.13-0.15-0.29-0.15-0.45c0-0.07,0.01-0.12,0.03-0.16c0.03-0.06,0.08-0.1,0.14-0.11  c0.01,0,0.03,0,0.04,0c0.07,0,0.14,0.04,0.19,0.08c0.05,0.04,0.11,0.09,0.16,0.16c0.03-0.04,0.05-0.09,0.07-0.13  c0.01-0.02,0.02-0.04,0.03-0.07c-0.11,0-0.21-0.02-0.3-0.08c-0.13-0.09-0.18-0.27-0.12-0.42c0.02-0.04,0.04-0.07,0.07-0.1  c0.03-0.02,0.07-0.04,0.12-0.04c0.01,0,0.02,0,0.03,0c0.09,0,0.17,0.03,0.25,0.08c-0.01-0.09-0.03-0.17-0.05-0.25  c-0.17,0.03-0.37-0.02-0.56-0.15c-0.06-0.04-0.13-0.09-0.16-0.17c-0.03-0.07-0.02-0.14-0.02-0.19c0-0.04,0.01-0.07,0.04-0.11  c0.04-0.05,0.11-0.06,0.16-0.06c0,0,0,0,0,0c0.1,0,0.2,0.02,0.29,0.05c-0.03-0.06-0.06-0.13-0.09-0.19  c-0.11,0.04-0.25,0.04-0.36-0.02c-0.14-0.07-0.23-0.21-0.23-0.36c0-0.03,0-0.06,0.02-0.09c0.02-0.03,0.06-0.05,0.09-0.05  c0.04-0.01,0.07-0.01,0.11-0.01c0.04,0,0.09,0.01,0.13,0.02c-0.01-0.03-0.02-0.05-0.03-0.08c-0.02-0.05-0.04-0.11-0.06-0.16  c-0.13,0-0.26-0.04-0.36-0.11c-0.13-0.1-0.22-0.25-0.24-0.42c0-0.03,0-0.06,0.01-0.09c0.01-0.02,0.04-0.04,0.07-0.06  c0.03-0.01,0.07-0.02,0.1-0.02c0.09,0,0.18,0.04,0.23,0.07c0.01,0.01,0.02,0.02,0.03,0.02c-0.02-0.1-0.03-0.2-0.04-0.3  c-0.11,0.02-0.22,0.02-0.31-0.04c-0.04-0.03-0.08-0.07-0.11-0.13c-0.06-0.11-0.09-0.25-0.08-0.37c0.01-0.1,0.05-0.14,0.09-0.16  c0.02-0.01,0.04-0.01,0.05-0.01c0.03,0,0.06,0.01,0.08,0.02c0.1,0.03,0.19,0.09,0.27,0.15c0.01-0.18,0.03-0.36,0.07-0.54  c-0.03-0.01-0.07-0.02-0.1-0.03c-0.1-0.05-0.18-0.12-0.21-0.21c-0.03-0.08-0.03-0.17,0-0.28c0.01-0.03,0.02-0.07,0.05-0.1  c0.04-0.04,0.09-0.06,0.14-0.06c0.04,0,0.09,0.01,0.12,0.03c0.05,0.02,0.09,0.06,0.12,0.1c0.01-0.06,0.02-0.12,0.02-0.18  c0.01-0.09,0.08-0.15,0.16-0.15c0,0,0.01,0,0.01,0c0.07,0,0.13,0.05,0.15,0.12C17.85,3.5,17.92,3.48,18,3.48c0.03,0,0.07,0,0.1,0.01  c0.09,0.02,0.16,0.06,0.19,0.12c0.04,0.1-0.03,0.2-0.1,0.26c-0.13,0.1-0.3,0.15-0.46,0.13c-0.01,0.05-0.02,0.1-0.03,0.15  c-0.01,0.04-0.02,0.08-0.03,0.11c0.02,0,0.04,0,0.06,0c0.03,0,0.05,0,0.08,0c0.07,0,0.14,0.01,0.21,0.04  c0.07,0.04,0.13,0.11,0.12,0.21C18.12,4.6,18.05,4.65,18,4.68c-0.13,0.09-0.27,0.14-0.42,0.17c0,0.09-0.01,0.18,0,0.28  c0.03-0.02,0.06-0.04,0.09-0.05c0.03-0.01,0.06-0.01,0.09-0.01c0.06,0,0.12,0.02,0.19,0.05c0.1,0.05,0.17,0.14,0.18,0.23  c0.01,0.1-0.05,0.2-0.15,0.27c-0.09,0.07-0.21,0.11-0.32,0.13c0.02,0.09,0.04,0.19,0.07,0.28c0.04-0.07,0.08-0.13,0.15-0.17  c0.06-0.03,0.13-0.03,0.19-0.03c0,0,0,0,0.01,0c0.08,0,0.17,0.01,0.23,0.07c0.06,0.07,0.06,0.16,0.04,0.23  c-0.05,0.21-0.19,0.38-0.36,0.54C18,6.74,18.03,6.8,18.06,6.86c0.03-0.04,0.07-0.07,0.11-0.09c0.05-0.02,0.1-0.03,0.16-0.03  c0.05,0,0.11,0.01,0.16,0.03c0.04,0.02,0.08,0.05,0.1,0.08c0.04,0.07,0.04,0.15-0.01,0.26c-0.06,0.14-0.16,0.25-0.27,0.3  c0.01,0.03,0.02,0.06,0.03,0.09c0.02,0.06,0.04,0.13,0.07,0.2c0.03-0.07,0.07-0.13,0.13-0.16c0.04-0.02,0.07-0.03,0.11-0.03  c0.08,0,0.16,0.04,0.21,0.08c0.02,0.02,0.05,0.05,0.07,0.09c0.01,0.03,0.01,0.06,0,0.09C18.89,8,18.73,8.21,18.51,8.3  c0,0.12-0.01,0.24-0.04,0.35c0.02,0,0.04,0,0.06,0c0.07,0,0.14,0.01,0.21,0.04c0.04,0.01,0.08,0.04,0.11,0.08  c0.02,0.03,0.02,0.06,0.02,0.1c0,0.1-0.07,0.21-0.18,0.27c-0.09,0.05-0.2,0.07-0.3,0.07c-0.06,0.01-0.13,0.01-0.19-0.01  c-0.06,0.07-0.12,0.14-0.18,0.21c0.04,0,0.08,0.01,0.12,0.02c0.1,0.03,0.17,0.08,0.2,0.14c0.05,0.11-0.01,0.22-0.09,0.28  c-0.09,0.06-0.19,0.07-0.28,0.08c-0.15,0.01-0.28-0.01-0.39-0.05c-0.09,0.11-0.17,0.22-0.24,0.33c0.11,0.01,0.22,0.03,0.32,0.07  c0.05,0.02,0.11,0.05,0.14,0.11c0.06,0.1,0.02,0.22-0.05,0.28c-0.07,0.07-0.18,0.1-0.25,0.11c-0.16,0.03-0.32,0.03-0.48,0  c-0.04,0.09-0.08,0.19-0.11,0.28c0.08,0.01,0.17,0.04,0.25,0.09c0.11,0.07,0.17,0.15,0.16,0.24c0,0.08-0.06,0.16-0.15,0.2  c-0.07,0.03-0.16,0.04-0.23,0.04c-0.06,0-0.13-0.01-0.19-0.02c-0.01,0.07-0.03,0.15-0.03,0.22c0.04,0,0.09,0.02,0.13,0.03  c0.06,0.02,0.13,0.06,0.19,0.12c0.06,0.07,0.09,0.15,0.07,0.23c-0.02,0.1-0.12,0.17-0.25,0.21c-0.05,0.01-0.09,0.02-0.14,0.02  c0.01,0.06,0.01,0.12,0.01,0.18c0.03-0.01,0.05-0.02,0.08-0.03c0.03-0.01,0.06-0.01,0.08-0.01c0.07,0,0.14,0.02,0.18,0.07  c0.07,0.07,0.09,0.19,0.04,0.29c-0.04,0.08-0.12,0.15-0.22,0.19c-0.06,0.02-0.11,0.03-0.17,0.03c-0.01,0.09-0.01,0.18-0.03,0.27  c0,0.02-0.01,0.04-0.01,0.06c0.04-0.04,0.1-0.06,0.16-0.06c0.01,0,0.01,0,0.02,0c0.07,0,0.13,0.02,0.2,0.06  c0.06,0.04,0.12,0.1,0.15,0.18c0.03-0.02,0.06-0.04,0.08-0.05c-0.04-0.02-0.07-0.04-0.09-0.07c-0.06-0.07-0.08-0.17-0.08-0.26  c-0.01-0.11-0.01-0.24,0.07-0.33c0.05-0.05,0.11-0.07,0.18-0.07c0.04,0,0.08,0.01,0.12,0.02c0.08,0.03,0.15,0.1,0.21,0.2  c0.02,0.04,0.04,0.08,0.06,0.12c0.04-0.05,0.08-0.1,0.11-0.15c0.01-0.02,0.02-0.04,0.04-0.07c0,0-0.01-0.01-0.01-0.01  c-0.07-0.08-0.13-0.17-0.17-0.31c-0.03-0.07-0.06-0.19-0.05-0.3c0.01-0.12,0.07-0.22,0.16-0.28c0.04-0.02,0.08-0.04,0.12-0.04  c0.02,0,0.04,0,0.06,0.01c0.04,0.01,0.06,0.04,0.08,0.07c0.07,0.08,0.12,0.18,0.15,0.28c0.05-0.05,0.1-0.09,0.17-0.13  c0.03-0.01,0.05-0.02,0.08-0.02c0.06,0,0.11,0.03,0.14,0.09c0.04,0.08,0.01,0.18-0.07,0.22c-0.07,0.04-0.12,0.1-0.17,0.17  c0.06-0.01,0.13-0.02,0.19-0.02c0.02,0,0.05,0,0.07,0c0.06,0,0.13,0.02,0.18,0.07c0.07,0.06,0.08,0.17,0.04,0.3  c-0.02,0.06-0.05,0.11-0.09,0.14c-0.06,0.05-0.14,0.06-0.25,0.05c-0.12-0.02-0.24-0.06-0.35-0.12c-0.01,0.02-0.02,0.05-0.04,0.07  c-0.08,0.13-0.17,0.24-0.27,0.34c0.14,0.02,0.27,0.08,0.37,0.17c0.01,0.01,0.03,0.02,0.03,0.04c0.01,0.03,0.01,0.05,0.01,0.07  c-0.02,0.15-0.15,0.24-0.27,0.27c-0.13,0.03-0.27,0-0.37-0.03c-0.11-0.03-0.19-0.07-0.27-0.11c-0.01-0.01-0.02-0.01-0.02-0.02  c-0.05,0.03-0.11,0.07-0.16,0.1c-0.05,0.03-0.1,0.06-0.15,0.1c0.06,0.03,0.12,0.06,0.18,0.11c0.03,0.03,0.07,0.07,0.1,0.12  c0.05,0.13-0.03,0.27-0.14,0.33c-0.11,0.06-0.24,0.07-0.35,0.06c-0.15-0.01-0.31-0.03-0.46-0.06c-0.08,0.09-0.15,0.19-0.22,0.3  c0.05,0,0.1,0,0.15,0.01c0.08,0.02,0.19,0.05,0.26,0.14c0.07,0.09,0.09,0.21,0.03,0.3c-0.05,0.09-0.16,0.13-0.32,0.14  c-0.14,0-0.29-0.02-0.43-0.06c-0.05,0.09-0.09,0.19-0.14,0.28c0.01,0,0.01,0,0.02,0c0.01,0,0.02,0,0.04,0  c0.09,0,0.22,0.03,0.31,0.12c0.09,0.09,0.12,0.23,0.06,0.34c-0.04,0.07-0.12,0.13-0.23,0.14c-0.09,0.01-0.17,0-0.25-0.01l-0.19-0.03  c-0.02,0.04-0.03,0.08-0.04,0.12c-0.02,0.06-0.04,0.12-0.05,0.18c0.05,0.01,0.1,0.02,0.12,0.03c0.06,0.02,0.14,0.04,0.2,0.09  c0.07,0.06,0.11,0.14,0.1,0.21c-0.01,0.09-0.08,0.16-0.19,0.21c-0.11,0.04-0.23,0.05-0.35,0.04c-0.01,0.1-0.03,0.21-0.03,0.31  c0.05-0.02,0.1-0.04,0.15-0.05c0.01,0,0.03,0,0.04,0c0.15,0,0.28,0.09,0.32,0.22c0.05,0.16-0.05,0.33-0.18,0.41  c-0.1,0.06-0.21,0.08-0.32,0.1c0.01,0.08,0.02,0.16,0.03,0.24c0.07-0.05,0.16-0.08,0.24-0.08c0.02,0,0.04,0,0.06,0  c0.08,0.01,0.14,0.04,0.19,0.09c0.06,0.05,0.09,0.13,0.08,0.2c-0.01,0.04-0.03,0.09-0.06,0.13c-0.1,0.12-0.24,0.2-0.39,0.22  c0.02,0.09,0.05,0.18,0.08,0.27c0.06-0.06,0.13-0.11,0.22-0.11c0,0,0.01,0,0.01,0c0.11,0,0.2,0.1,0.22,0.21  c0.01,0.1-0.03,0.2-0.12,0.27c-0.04,0.03-0.09,0.06-0.15,0.07c0.16,0.34,0.36,0.65,0.6,0.93c-0.05-0.14-0.09-0.28-0.13-0.42  c-0.06,0-0.12,0-0.17-0.04c-0.07-0.06-0.09-0.16-0.1-0.24c0-0.03-0.01-0.06,0.01-0.09c0.02-0.05,0.07-0.08,0.15-0.08  c0.01,0,0.02,0,0.03,0c0,0,0,0,0,0c0-0.08-0.01-0.15,0-0.23c0.01-0.1,0.02-0.19,0.04-0.28c-0.03-0.02-0.06-0.04-0.09-0.07  c-0.07-0.08-0.11-0.19-0.09-0.3c0-0.04,0.02-0.07,0.03-0.1c0.02-0.03,0.05-0.05,0.08-0.06c0.03-0.01,0.05-0.01,0.08-0.01  c0.04,0,0.09,0.01,0.13,0.03c0,0,0,0,0.01,0c0.02-0.06,0.04-0.11,0.07-0.17c-0.05-0.03-0.1-0.06-0.14-0.11  c-0.08-0.11-0.1-0.26-0.06-0.39c0.02-0.05,0.04-0.09,0.07-0.12c0.04-0.04,0.1-0.06,0.16-0.06c0.04,0,0.08,0.01,0.12,0.03  c0.03,0.02,0.06,0.04,0.08,0.07c0.01-0.04,0.02-0.07,0.03-0.11c-0.07-0.02-0.13-0.07-0.18-0.13c-0.06-0.09-0.08-0.21-0.06-0.34  c0.02-0.1,0.06-0.17,0.12-0.2c0.03-0.01,0.06-0.02,0.08-0.02c0.02,0,0.05,0,0.07,0.01c0.04,0.01,0.07,0.02,0.1,0.03  c0.01-0.1,0.02-0.2,0.03-0.3c-0.04-0.01-0.08-0.03-0.12-0.06c-0.12-0.09-0.2-0.2-0.21-0.32c-0.01-0.08,0.02-0.16,0.07-0.22  c0.04-0.05,0.1-0.08,0.16-0.08c0,0,0.01,0,0.01,0c0.04,0,0.07,0.01,0.11,0.03c0-0.05,0-0.1,0-0.14c0-0.09,0.08-0.16,0.16-0.16  c0,0,0,0,0.01,0c0.09,0,0.16,0.08,0.16,0.17c0,0.09-0.01,0.18-0.01,0.27c0.05-0.03,0.11-0.04,0.17-0.04c0.02,0,0.04,0,0.05,0  c0.07,0.01,0.12,0.04,0.15,0.09c0.02,0.03,0.03,0.06,0.03,0.1c0.01,0.1-0.04,0.21-0.13,0.3c-0.08,0.08-0.18,0.13-0.26,0.17  c-0.02,0.01-0.04,0.02-0.06,0.02c-0.01,0.06-0.01,0.12-0.02,0.19c0.01,0,0.01,0,0.02,0c0.02,0,0.04,0,0.05,0  c0.05,0,0.1,0.01,0.15,0.03c0.1,0.05,0.15,0.18,0.1,0.3c-0.03,0.09-0.12,0.17-0.23,0.2c-0.06,0.02-0.13,0.02-0.19,0.03  c-0.01,0.05-0.03,0.11-0.04,0.16c0.01,0,0.01,0,0.02,0c0.03,0,0.06,0,0.09,0.01c0.11,0.03,0.21,0.1,0.26,0.21  c0.02,0.04,0.03,0.07,0.03,0.1c0,0.09-0.07,0.17-0.21,0.22c-0.13,0.04-0.26,0.06-0.4,0.05c-0.01,0.02-0.02,0.04-0.02,0.05  c-0.03,0.07-0.06,0.14-0.08,0.2c0.02,0,0.03,0,0.05,0c0.06,0,0.14,0.02,0.2,0.07c0.07,0.05,0.1,0.14,0.08,0.22  c-0.01,0.04-0.04,0.07-0.09,0.11c-0.11,0.08-0.26,0.11-0.4,0.09c-0.02,0.09-0.04,0.18-0.04,0.28c0,0.01,0,0.01,0,0.02  c0.01,0,0.02,0,0.03,0c0.1,0,0.19,0.02,0.26,0.08c0.1,0.1,0.1,0.28,0,0.39c-0.06,0.06-0.14,0.09-0.22,0.1  c0.02,0.08,0.04,0.16,0.07,0.24c0.02-0.01,0.03-0.02,0.05-0.03c0.02-0.02,0.05-0.04,0.07-0.05c0.04-0.02,0.08-0.03,0.13-0.03  c0.03,0,0.06,0.01,0.09,0.02c0.08,0.02,0.14,0.08,0.17,0.14c0.03,0.06,0.04,0.14,0.02,0.23c-0.01,0.03-0.02,0.08-0.04,0.12  c-0.03,0.04-0.07,0.06-0.1,0.08c-0.06,0.03-0.13,0.06-0.2,0.08c0.03,0.08,0.05,0.16,0.08,0.24c0.01,0.03,0.01,0.06,0.02,0.08  c0.05-0.04,0.11-0.06,0.17-0.07c0,0,0,0,0,0c0.08,0,0.16,0.04,0.19,0.11c0.04,0.09,0,0.19-0.04,0.26c-0.03,0.05-0.06,0.1-0.11,0.14  c-0.04,0.03-0.08,0.04-0.12,0.05c0.01,0.04,0.01,0.08,0.01,0.12c0.02-0.01,0.04-0.02,0.06-0.02c0.05-0.02,0.11-0.03,0.16-0.03  c0.04,0,0.08,0.01,0.11,0.03c0.11,0.06,0.14,0.19,0.13,0.28c-0.01,0.13-0.08,0.25-0.18,0.33c-0.07,0.06-0.17,0.09-0.26,0.09  c0,0.06-0.01,0.12-0.02,0.19c0.04-0.01,0.07-0.01,0.11-0.01c0.01,0,0.01,0,0.02,0c0.06,0,0.14,0.02,0.2,0.08  c0.05,0.05,0.08,0.13,0.07,0.22c-0.01,0.07-0.04,0.13-0.09,0.2c-0.04,0.05-0.08,0.09-0.12,0.11c-0.06,0.03-0.13,0.03-0.19,0.03  c-0.04,0-0.07,0-0.11-0.01c-0.02,0.07-0.04,0.15-0.06,0.22c0.05-0.02,0.11-0.04,0.17-0.04c0,0,0.01,0,0.01,0  c0.09,0,0.19,0.04,0.24,0.12c0.06,0.08,0.08,0.19,0.04,0.28c-0.03,0.08-0.11,0.15-0.21,0.19c-0.09,0.03-0.18,0.03-0.27,0.03  c-0.05,0-0.1-0.01-0.16-0.02c-0.03,0.08-0.06,0.15-0.08,0.22c0.08,0,0.15,0.01,0.23,0.03c0.04,0.01,0.09,0.02,0.12,0.06  c0.05,0.04,0.07,0.09,0.06,0.14c-0.02,0.08-0.1,0.12-0.13,0.13c-0.14,0.06-0.3,0.09-0.45,0.08c-0.02,0.06-0.05,0.13-0.07,0.19  c0.02,0,0.04,0,0.06,0c0.1,0,0.21,0.02,0.3,0.07c0.06,0.03,0.1,0.06,0.13,0.1c0.04,0.05,0.05,0.12,0.03,0.17  c-0.02,0.06-0.08,0.11-0.17,0.13c-0.16,0.04-0.33,0-0.48-0.04c-0.01,0.05-0.03,0.09-0.04,0.14c0.02,0,0.04,0,0.06,0  c0.04,0,0.07,0,0.11,0.01c0.07,0.02,0.11,0.04,0.14,0.09c0.03,0.05,0.03,0.11,0.01,0.16c-0.02,0.05-0.06,0.09-0.08,0.12  c-0.11,0.11-0.24,0.17-0.35,0.17c0,0,0,0,0,0c0,0.02-0.01,0.04-0.02,0.06c-0.01,0.04-0.01,0.08-0.02,0.11c0.02,0,0.04,0,0.05,0  c0.03,0,0.05,0,0.08,0.01c0.1,0.02,0.18,0.08,0.22,0.16c0.05,0.1,0.02,0.21-0.06,0.27c-0.04,0.03-0.09,0.04-0.14,0.05  c-0.1,0.01-0.19,0.01-0.27,0c-0.04,0.17-0.09,0.34-0.13,0.5c-0.05,0.19-0.1,0.38-0.15,0.57c-0.06,0.25-0.11,0.49-0.14,0.71  c0.12-0.18,0.27-0.34,0.42-0.5c0.03-0.04,0.07-0.08,0.1-0.12c-0.05-0.19-0.08-0.39-0.08-0.6c0-0.1,0-0.21,0.04-0.32  c0.03-0.09,0.09-0.15,0.16-0.16c0.01,0,0.03,0,0.04,0c0.06,0,0.12,0.03,0.17,0.08c0.05,0.06,0.07,0.14,0.08,0.19  c0.02,0.11,0.01,0.22,0,0.33c0.12-0.14,0.23-0.28,0.35-0.42c0,0,0,0,0.01-0.01c-0.12-0.29-0.23-0.6-0.21-0.93  c0-0.07,0.01-0.16,0.06-0.24c0.05-0.08,0.13-0.14,0.21-0.14c0,0,0,0,0.01,0c0.14,0,0.22,0.14,0.26,0.21  c0.08,0.17,0.11,0.37,0.13,0.55c0.11-0.13,0.21-0.27,0.31-0.41c-0.22-0.25-0.28-0.6-0.29-0.86c0-0.09,0-0.18,0.03-0.26  c0.03-0.1,0.11-0.18,0.19-0.21c0.03-0.01,0.06-0.01,0.09-0.01c0.07,0,0.14,0.03,0.21,0.07c0.07,0.05,0.12,0.13,0.17,0.24  c0.03,0.07,0.05,0.15,0.07,0.23c0.08-0.17,0.14-0.34,0.2-0.52c-0.29-0.09-0.52-0.32-0.62-0.61c-0.03-0.11-0.06-0.26,0.01-0.4  c0.05-0.1,0.16-0.18,0.28-0.18c0.03,0,0.05,0,0.08,0.01c0.05,0.02,0.09,0.05,0.13,0.08c0.1,0.08,0.21,0.16,0.29,0.27  c0.01,0.01,0.01,0.02,0.02,0.03c0.03-0.17,0.04-0.34,0.05-0.52c-0.05-0.01-0.09-0.03-0.14-0.06c-0.12-0.06-0.23-0.13-0.32-0.22  c-0.11-0.1-0.18-0.23-0.2-0.35c-0.02-0.13,0.03-0.25,0.12-0.31c0.04-0.03,0.1-0.04,0.16-0.04c0,0,0.01,0,0.01,0  c0.13,0,0.26,0.08,0.34,0.19c-0.02-0.19-0.05-0.39-0.09-0.58c-0.15,0-0.3-0.03-0.49-0.11c-0.12-0.05-0.26-0.11-0.35-0.22  c-0.09-0.1-0.15-0.27-0.08-0.41c0.06-0.14,0.22-0.2,0.35-0.2c0.02,0,0.04,0,0.05,0c0.15,0.02,0.28,0.1,0.37,0.18  c0-0.02-0.01-0.04-0.01-0.07c-0.02-0.08-0.04-0.16-0.05-0.25c-0.16-0.03-0.31-0.13-0.43-0.29c-0.12-0.16-0.18-0.34-0.24-0.53  c-0.01-0.04-0.03-0.09-0.03-0.15c0-0.07,0.04-0.12,0.09-0.15c0.02-0.01,0.04-0.01,0.06-0.01c0.01,0,0.03,0,0.05,0.01  c0.14,0.03,0.24,0.15,0.3,0.23c0.01,0.02,0.03,0.04,0.04,0.06c-0.04-0.23-0.06-0.46-0.07-0.69c-0.17-0.07-0.29-0.22-0.4-0.36  c-0.1-0.14-0.21-0.32-0.15-0.49c0.03-0.09,0.11-0.17,0.21-0.19c0.02-0.01,0.05-0.01,0.08-0.01c0.07,0,0.15,0.03,0.2,0.07  c0.04,0.03,0.07,0.07,0.09,0.12c0.02-0.19,0.06-0.37,0.11-0.55c-0.22-0.22-0.34-0.53-0.35-0.84c0-0.05,0-0.1,0.03-0.14  c0.03-0.05,0.1-0.09,0.17-0.09c0,0,0,0,0.01,0c0.15,0,0.27,0.12,0.32,0.24c0.02,0.05,0.03,0.11,0.04,0.16  c0.05-0.13,0.1-0.25,0.16-0.38c-0.1-0.25-0.15-0.52-0.14-0.79c0-0.17,0.06-0.28,0.16-0.31c0.02-0.01,0.04-0.01,0.06-0.01  c0.05,0,0.1,0.02,0.15,0.06c0.04,0.04,0.08,0.09,0.11,0.16c0.02,0.06,0.03,0.12,0.04,0.18c0.11-0.19,0.22-0.37,0.33-0.55  c-0.01-0.04-0.03-0.07-0.04-0.11c-0.01-0.03-0.02-0.06-0.03-0.09c-0.07-0.21-0.11-0.43-0.1-0.65c0-0.16,0.06-0.27,0.15-0.32  c0.03-0.01,0.05-0.02,0.08-0.02c0.09,0,0.17,0.05,0.22,0.12c0.06,0.08,0.08,0.19,0.09,0.28c0.01,0.06,0.02,0.13,0.02,0.2  c0.1-0.14,0.19-0.29,0.28-0.44c-0.17-0.1-0.31-0.28-0.37-0.51c-0.03-0.11-0.03-0.2-0.01-0.27c0.03-0.1,0.11-0.18,0.2-0.2  c0.02,0,0.03,0,0.05,0c0.14,0,0.25,0.13,0.29,0.19c0.05,0.07,0.09,0.15,0.12,0.24c0.07-0.19,0.12-0.39,0.12-0.59  c-0.13-0.03-0.26-0.08-0.38-0.14c-0.1-0.05-0.24-0.13-0.3-0.27c-0.04-0.09-0.03-0.2,0.02-0.29c0.04-0.08,0.11-0.14,0.2-0.16  c0.02,0,0.04-0.01,0.07-0.01c0.08,0,0.16,0.03,0.22,0.08c-0.07-0.15-0.15-0.3-0.23-0.46c-0.01-0.01-0.01-0.02-0.02-0.03  c-0.14,0.02-0.29,0-0.42-0.06c-0.12-0.06-0.25-0.17-0.25-0.33c0-0.04,0.01-0.07,0.02-0.09c0.01-0.02,0.04-0.04,0.06-0.06  c0.04-0.02,0.09-0.03,0.14-0.03c0.06,0,0.12,0.01,0.17,0.04c0.01,0,0.01,0.01,0.02,0.01c-0.05-0.12-0.1-0.25-0.13-0.38  c-0.12,0.01-0.24-0.01-0.34-0.07c-0.15-0.09-0.25-0.26-0.22-0.42c0-0.02,0.01-0.04,0.02-0.06c0.01-0.02,0.03-0.04,0.06-0.05  c0.04-0.02,0.08-0.03,0.13-0.03c0.07,0,0.14,0.02,0.21,0.06c0.01,0.01,0.02,0.02,0.04,0.03c-0.01-0.12-0.02-0.25-0.02-0.37  c-0.03-0.01-0.06-0.03-0.09-0.05c-0.05-0.03-0.1-0.06-0.14-0.1c-0.06-0.06-0.09-0.14-0.11-0.21c-0.01-0.05-0.03-0.11-0.03-0.17  c0-0.02,0-0.04,0.01-0.06c0.01-0.02,0.02-0.03,0.04-0.04c0.03-0.02,0.06-0.02,0.09-0.02c0.07,0,0.14,0.03,0.18,0.08  c0.03,0.03,0.05,0.06,0.07,0.09c0.01-0.07,0.02-0.14,0.03-0.21c0.02-0.08,0.08-0.13,0.16-0.13c0.01,0,0.02,0,0.03,0  c0.09,0.02,0.15,0.1,0.13,0.19c-0.04,0.18-0.05,0.37-0.06,0.55c0.01-0.01,0.03-0.03,0.05-0.04c0.02-0.01,0.05-0.02,0.07-0.02  c0,0,0,0,0.01,0c0.11,0,0.21,0.11,0.21,0.23c0,0.1-0.05,0.2-0.14,0.28c-0.05,0.04-0.1,0.07-0.16,0.09c0.02,0.14,0.05,0.28,0.1,0.42  c0.03-0.05,0.08-0.08,0.15-0.11c0.08-0.03,0.16-0.05,0.24-0.05c0,0,0.01,0,0.01,0c0.09,0,0.15,0.02,0.2,0.07  c0.05,0.05,0.08,0.13,0.07,0.21c-0.01,0.08-0.05,0.15-0.08,0.2c-0.09,0.14-0.2,0.25-0.34,0.33c0.02,0.05,0.05,0.09,0.07,0.14  c0.04-0.09,0.09-0.18,0.16-0.25c0.03-0.03,0.07-0.07,0.12-0.09c0.04-0.01,0.07-0.02,0.11-0.02c0.02,0,0.03,0,0.05,0  c0.08,0.01,0.18,0.02,0.25,0.09c0.07,0.07,0.09,0.17,0.07,0.28c-0.02,0.1-0.08,0.18-0.13,0.24c-0.1,0.13-0.22,0.23-0.35,0.32  c0.04,0.1,0.08,0.2,0.11,0.3c0.01-0.02,0.02-0.04,0.03-0.05c0.02-0.03,0.04-0.08,0.08-0.11c0.05-0.04,0.11-0.05,0.15-0.06  c0.04-0.01,0.08-0.01,0.13-0.01c0.05,0,0.11,0.01,0.16,0.04c0.08,0.05,0.12,0.14,0.12,0.25c0,0.08-0.03,0.16-0.09,0.25  C20.72,13.6,20.53,13.73,20.33,13.79z M15.14,27.93c-0.1-0.05-0.2-0.12-0.29-0.19c-0.12-0.1-0.19-0.19-0.23-0.29  c-0.05-0.13-0.03-0.28,0.06-0.37c0.06-0.06,0.14-0.08,0.22-0.08c0.09,0,0.18,0.03,0.25,0.08c0.07,0.05,0.12,0.12,0.16,0.21  c0-0.01,0-0.02,0.01-0.03c0.03-0.11,0.06-0.21,0.08-0.32c-0.32-0.08-0.6-0.35-0.67-0.68c-0.01-0.05-0.02-0.12,0.02-0.18  c0.03-0.05,0.09-0.07,0.14-0.08c0.04-0.01,0.09-0.01,0.13-0.01c0.21,0,0.41,0.09,0.55,0.25c0.03-0.16,0.06-0.33,0.08-0.49  c-0.11,0-0.23-0.03-0.33-0.1c-0.13-0.09-0.23-0.24-0.28-0.41C15,25.15,14.99,25.07,15.01,25c0.02-0.09,0.08-0.17,0.16-0.2  c0.03-0.01,0.05-0.01,0.08-0.01c0.06,0,0.13,0.02,0.19,0.06c0.08,0.04,0.15,0.1,0.21,0.17c0-0.04-0.01-0.08-0.01-0.11  c-0.02-0.17-0.06-0.34-0.1-0.5c-0.12,0-0.23-0.03-0.35-0.07c-0.13-0.04-0.26-0.09-0.38-0.17c-0.13-0.09-0.22-0.21-0.26-0.33  c-0.02-0.09-0.02-0.22,0.08-0.3c0.04-0.03,0.09-0.05,0.16-0.05c0.02,0,0.03,0,0.05,0c0.14,0.01,0.27,0.07,0.38,0.13  c-0.11-0.22-0.23-0.43-0.36-0.64c-0.19,0.04-0.4,0.02-0.57-0.07c-0.09-0.04-0.15-0.1-0.2-0.16c-0.06-0.08-0.08-0.19-0.09-0.27  c-0.01-0.05-0.01-0.11,0.01-0.17c0.04-0.1,0.16-0.14,0.26-0.14c0.01,0,0.02,0,0.03,0c0.01,0,0.02,0,0.03,0  c-0.08-0.11-0.15-0.22-0.23-0.34c-0.16,0.05-0.33,0.05-0.48,0.05c-0.21,0-0.44-0.03-0.59-0.19c-0.08-0.09-0.13-0.21-0.15-0.38  c-0.01-0.05-0.01-0.1,0.02-0.15c0.03-0.06,0.1-0.09,0.15-0.11c0.08-0.02,0.15-0.03,0.23-0.03c0.09,0,0.18,0.02,0.27,0.04  c-0.1-0.14-0.21-0.27-0.31-0.41c-0.18,0.03-0.37,0.02-0.55-0.03c-0.18-0.05-0.31-0.13-0.39-0.24c-0.02-0.03-0.03-0.05-0.04-0.08  c-0.09,0.22-0.17,0.45-0.23,0.68c0.01,0,0.02,0,0.03,0c0.02,0,0.04,0,0.06,0c0.13,0,0.27,0.05,0.37,0.13  c0.06,0.05,0.09,0.11,0.08,0.17c-0.01,0.05-0.05,0.09-0.08,0.12c-0.17,0.14-0.38,0.2-0.57,0.16c-0.01,0.12-0.02,0.25-0.03,0.37  c0.08-0.06,0.17-0.1,0.27-0.11c0.01,0,0.01,0,0.02,0c0.03,0,0.06,0,0.08,0.02c0.07,0.04,0.07,0.15,0.05,0.22  c-0.06,0.19-0.23,0.35-0.43,0.4c0,0.06,0,0.13,0,0.19c0.03-0.01,0.07-0.01,0.11-0.01c0.01,0,0.02,0,0.03,0  c0.14,0.01,0.26,0.12,0.29,0.25c0.03,0.14-0.04,0.28-0.16,0.35c-0.08,0.04-0.17,0.05-0.25,0.05c0,0.09,0.01,0.19,0.01,0.28  c0,0,0,0,0.01,0c0.02,0,0.04,0,0.05,0c0.15,0.02,0.26,0.08,0.31,0.17c0.07,0.11,0.04,0.28-0.07,0.38c-0.06,0.06-0.15,0.1-0.24,0.12  c0.01,0.09,0.03,0.17,0.04,0.25c0.04-0.04,0.08-0.06,0.14-0.08c0.02,0,0.04-0.01,0.06-0.01c0.09,0,0.18,0.05,0.23,0.12  c0.05,0.08,0.05,0.2,0,0.33c-0.05,0.13-0.14,0.23-0.24,0.28c0.04,0.09,0.08,0.18,0.13,0.27c0.01-0.02,0.02-0.04,0.03-0.05  c0.05-0.06,0.12-0.1,0.21-0.1c0,0,0.01,0,0.01,0c0.08,0,0.15,0.03,0.2,0.08c0.08,0.09,0.1,0.23,0.06,0.36  c-0.03,0.08-0.08,0.16-0.13,0.23c0.17,0.18,0.35,0.35,0.55,0.52c-0.01-0.1-0.01-0.19-0.01-0.29c-0.04-0.02-0.08-0.04-0.12-0.08  c-0.09-0.08-0.13-0.17-0.1-0.24c0.02-0.06,0.08-0.1,0.15-0.11c0.02,0,0.04,0,0.05,0c0.01,0,0.02,0,0.02,0  c0-0.07,0.01-0.14,0.01-0.21c-0.1-0.02-0.19-0.07-0.25-0.14c-0.08-0.11-0.08-0.25-0.07-0.39c0-0.03,0-0.08,0.03-0.12  c0.03-0.04,0.08-0.07,0.15-0.07c0.03,0,0.06,0,0.09,0.01c0.04,0.01,0.08,0.03,0.11,0.04c0.01-0.06,0.01-0.11,0.02-0.17  c-0.06-0.02-0.11-0.06-0.16-0.09c-0.04-0.03-0.08-0.05-0.12-0.1c-0.04-0.06-0.05-0.13-0.06-0.19c0-0.03-0.01-0.06,0-0.09  c0.02-0.05,0.07-0.09,0.13-0.11c0.03-0.01,0.07-0.01,0.1-0.01c0.05,0,0.09,0.01,0.14,0.02c0-0.08,0-0.17,0-0.25  c-0.08,0-0.15-0.03-0.22-0.07c-0.09-0.06-0.16-0.16-0.18-0.27c-0.02-0.1,0-0.19,0.06-0.24c0.04-0.03,0.09-0.05,0.15-0.05  c0.01,0,0.01,0,0.02,0c0.03,0,0.06,0,0.09,0.01c-0.01-0.04-0.02-0.07-0.03-0.11c-0.03-0.09,0.02-0.18,0.11-0.21  c0.02-0.01,0.03-0.01,0.05-0.01c0.04,0,0.08,0.02,0.11,0.05c0.04-0.04,0.08-0.08,0.13-0.1c0.04-0.02,0.08-0.03,0.11-0.03  c0.01,0,0.02,0,0.03,0c0.11,0.02,0.17,0.14,0.16,0.25c-0.01,0.17-0.13,0.32-0.29,0.37c0.01,0.07,0.02,0.14,0.02,0.21  c0.01-0.01,0.03-0.02,0.05-0.03c0.03-0.01,0.07-0.02,0.1-0.02c0.03,0,0.06,0,0.09,0.01c0.06,0.01,0.1,0.04,0.13,0.07  c0.05,0.05,0.07,0.13,0.06,0.21c-0.01,0.13-0.08,0.24-0.18,0.32c-0.07,0.05-0.16,0.08-0.25,0.08c-0.01,0.12-0.02,0.24-0.03,0.36  c0.01,0,0.01,0,0.02,0c0.02,0,0.04,0,0.06,0c0.06,0.01,0.14,0.02,0.21,0.06c0.08,0.04,0.13,0.12,0.13,0.19  c0.01,0.08-0.03,0.16-0.1,0.22c-0.1,0.1-0.25,0.14-0.39,0.12c-0.01,0.11-0.02,0.22-0.03,0.33c0.02-0.01,0.04-0.02,0.06-0.02  c0.01,0,0.02,0,0.03,0c0.02,0,0.05,0.01,0.08,0.02c0.11,0.04,0.19,0.13,0.21,0.24c0.02,0.11-0.03,0.24-0.13,0.29  c-0.05,0.03-0.12,0.04-0.17,0.04c-0.03,0-0.06,0-0.09,0c0,0.1,0,0.21,0.01,0.31c0.03-0.03,0.06-0.06,0.1-0.08  c0.04-0.02,0.09-0.03,0.14-0.03c0.07,0,0.14,0.02,0.19,0.07c0.06,0.06,0.09,0.14,0.09,0.23c0,0.07-0.03,0.15-0.08,0.23  c-0.04,0.05-0.09,0.1-0.15,0.13c0.04,0.04,0.07,0.07,0.1,0.11c0,0,0,0,0,0c0.01-0.01,0.01-0.02,0.02-0.04  c0.02-0.04,0.04-0.09,0.09-0.13c0.05-0.04,0.12-0.04,0.17-0.04c0.01,0,0.02,0,0.04,0c0.04,0,0.09,0,0.13,0.03  c0.07,0.04,0.1,0.14,0.08,0.25c-0.02,0.12-0.09,0.23-0.17,0.32c0.25,0.3,0.47,0.62,0.67,0.95C15.06,28.32,15.1,28.13,15.14,27.93z   M16.09,24.3c-0.06,0.05-0.13,0.1-0.2,0.14c0.03,0.13,0.06,0.26,0.07,0.39c0.04-0.11,0.08-0.21,0.12-0.32  c0.05-0.12,0.09-0.24,0.13-0.35C16.18,24.21,16.14,24.26,16.09,24.3z M12.43,19.95c0.04-0.01,0.09-0.02,0.12-0.02  c0.01,0,0.01,0,0.02,0c0.03,0,0.05,0,0.08,0.01c-0.04-0.06-0.09-0.11-0.13-0.17C12.49,19.83,12.46,19.89,12.43,19.95z M12.68,19.45  c0.03,0.04,0.05,0.07,0.08,0.11l0.08-0.27c0.03-0.1,0.07-0.21,0.14-0.3c0.06-0.07,0.15-0.13,0.25-0.13c0.02,0,0.05,0,0.07,0.01  c0.08,0.02,0.13,0.08,0.16,0.12c0.07,0.1,0.1,0.24,0.08,0.39c-0.02,0.11-0.06,0.23-0.14,0.36c-0.07,0.12-0.15,0.22-0.24,0.32  c0.08,0.09,0.15,0.19,0.23,0.29c0-0.06,0-0.13,0.01-0.2c0.01-0.04,0.02-0.1,0.04-0.14c0.05-0.08,0.14-0.13,0.24-0.13  c0.02,0,0.05,0,0.07,0.01c0.11,0.03,0.19,0.11,0.24,0.23c0.04,0.09,0.04,0.2,0.02,0.32c-0.02,0.11-0.06,0.21-0.11,0.29  c-0.03,0.05-0.07,0.09-0.11,0.13c0.06,0.08,0.12,0.16,0.18,0.24c0-0.06,0.01-0.12,0.03-0.18c0.04-0.15,0.14-0.27,0.25-0.33  c0.05-0.03,0.11-0.04,0.16-0.04c0.1,0,0.19,0.04,0.25,0.1c0.12,0.14,0.08,0.34,0.05,0.45c-0.07,0.21-0.19,0.4-0.31,0.58  c0.07,0.1,0.14,0.21,0.22,0.31c0-0.05,0.02-0.11,0.04-0.16c0.04-0.07,0.1-0.12,0.16-0.15c0.01-0.01,0.03-0.02,0.05-0.02  c0.01,0,0.01,0,0.02,0c0.03,0,0.05,0.01,0.07,0.02c0.08,0.04,0.18,0.09,0.23,0.19c0.02,0.04,0.03,0.09,0.04,0.12  c0.02,0.11,0.01,0.2-0.01,0.28c-0.02,0.07-0.07,0.14-0.11,0.19c-0.03,0.04-0.06,0.08-0.09,0.12c0.05,0.08,0.1,0.16,0.16,0.25  c0.01-0.03,0.01-0.06,0.02-0.09c0.04-0.14,0.1-0.22,0.18-0.25c0.03-0.01,0.05-0.01,0.08-0.01c0.03,0,0.07,0.01,0.09,0.01  c0.05,0.01,0.1,0.02,0.15,0.05c0.04,0.03,0.08,0.07,0.1,0.12c0.07,0.14,0.06,0.31-0.02,0.47c-0.06,0.11-0.14,0.21-0.27,0.31  c0.06,0.11,0.11,0.22,0.16,0.34l0.03-0.05c0.05-0.1,0.1-0.19,0.2-0.23c0.03-0.01,0.05-0.01,0.08-0.01c0.09,0,0.18,0.06,0.23,0.13  c0.06,0.08,0.08,0.19,0.08,0.32c0,0.03,0,0.06-0.01,0.09c0.06-0.17,0.12-0.35,0.17-0.52c-0.05-0.02-0.09-0.04-0.12-0.08  c-0.08-0.08-0.12-0.2-0.12-0.32c0-0.07,0.02-0.12,0.05-0.16c0.03-0.03,0.08-0.05,0.13-0.05c0.01,0,0.01,0,0.02,0  c0.06,0,0.11,0.02,0.17,0.04c0-0.02,0.01-0.03,0.01-0.05c0.01-0.05,0.01-0.11,0.02-0.16c-0.1-0.01-0.19-0.06-0.27-0.14  c-0.07-0.07-0.11-0.15-0.12-0.23c-0.02-0.14,0.08-0.29,0.21-0.33c0.03-0.01,0.06-0.01,0.09-0.01c0.02,0,0.05,0,0.07,0.01  c-0.01-0.05-0.01-0.09-0.02-0.14c-0.11,0.03-0.23,0.01-0.33-0.04c-0.02-0.01-0.05-0.03-0.08-0.06c-0.04-0.05-0.05-0.13-0.02-0.19  c0.03-0.05,0.08-0.1,0.15-0.11c0.03-0.01,0.05-0.01,0.08-0.01c0.05,0,0.08-0.01,0.1-0.02c0-0.01,0-0.02-0.01-0.03  c-0.01,0-0.01-0.01-0.02-0.01c-0.04-0.03-0.07-0.06-0.11-0.09c-0.16,0.05-0.32,0.07-0.48,0.06c-0.07,0-0.15-0.01-0.23-0.04  c-0.09-0.04-0.16-0.11-0.21-0.16c-0.04-0.04-0.07-0.09-0.08-0.15c-0.01-0.06,0.03-0.13,0.08-0.17c0.04-0.03,0.09-0.05,0.16-0.06  c0.04-0.01,0.08-0.01,0.12-0.01c0.05,0,0.1,0,0.15,0.01c-0.05-0.06-0.1-0.13-0.14-0.19c0,0-0.01,0-0.01,0  c-0.21,0.06-0.44,0.02-0.62-0.1c-0.11-0.07-0.17-0.17-0.15-0.27c0.01-0.05,0.03-0.09,0.07-0.13c0.06-0.06,0.15-0.09,0.25-0.09  c0.02,0,0.04,0,0.06,0c0.03,0,0.05,0.01,0.07,0.01c-0.03-0.07-0.07-0.14-0.1-0.22c-0.17,0-0.31-0.02-0.41-0.09  c-0.14-0.09-0.26-0.27-0.21-0.46c0-0.02,0.01-0.04,0.03-0.05c0.02-0.02,0.04-0.03,0.07-0.04c0.03-0.01,0.06-0.01,0.09-0.01  c0.06,0,0.12,0.02,0.18,0.05c0.01,0.01,0.03,0.01,0.04,0.02c-0.02-0.07-0.04-0.14-0.05-0.21c-0.17-0.03-0.33-0.12-0.45-0.24  c-0.06-0.06-0.1-0.12-0.11-0.19c-0.02-0.08-0.01-0.17,0.04-0.23c0.04-0.05,0.11-0.08,0.18-0.08c0.02,0,0.05,0,0.07,0.01  c0.06,0.02,0.12,0.05,0.16,0.09c-0.01-0.1-0.02-0.21-0.02-0.31c-0.23-0.06-0.43-0.26-0.46-0.5c0-0.03-0.01-0.06,0-0.1  c-0.06,0.06-0.15,0.09-0.22,0.1c-0.14,0.04-0.28,0.05-0.42,0.04c-0.04,0-0.08-0.01-0.13-0.01c-0.05,0.11-0.11,0.22-0.16,0.32  c0.07,0,0.15,0.01,0.22,0.03c0.06,0.02,0.12,0.05,0.18,0.1c0.06,0.04,0.13,0.1,0.17,0.18c0.05,0.09,0.05,0.18,0.01,0.26  c-0.03,0.06-0.09,0.11-0.17,0.13c-0.07,0.02-0.14,0.02-0.2,0.02c-0.19,0-0.38-0.03-0.56-0.07c-0.03,0.06-0.06,0.12-0.1,0.18  C12.94,18.96,12.81,19.2,12.68,19.45z M15.03,15.35c-0.18,0.04-0.36,0.04-0.54,0c-0.05,0.21-0.11,0.42-0.18,0.63  c0.02-0.01,0.04-0.01,0.06-0.02c0.01,0,0.03,0,0.04,0c0.05,0,0.1,0.01,0.16,0.04c0.06,0.03,0.15,0.09,0.16,0.19  c0,0.06-0.02,0.12-0.07,0.17c-0.06,0.07-0.13,0.11-0.19,0.15c-0.15,0.08-0.27,0.12-0.39,0.1c-0.03,0.07-0.05,0.14-0.08,0.2  c0.01,0,0.03,0,0.04,0c0.01,0,0.02,0,0.03,0c0.16,0.01,0.3,0.08,0.38,0.2c0.07,0.1,0.08,0.22,0.04,0.33  c0.02-0.02,0.05-0.03,0.08-0.05c0.04-0.02,0.09-0.03,0.13-0.03c0.02,0,0.03,0,0.05,0c0.06,0.01,0.12,0.05,0.16,0.1  c0.01-0.05,0.01-0.1,0.02-0.15c-0.05-0.03-0.1-0.07-0.14-0.12c-0.06-0.09-0.08-0.2-0.1-0.29c-0.01-0.08-0.02-0.15-0.03-0.22  c0-0.04,0-0.09,0.02-0.13c0.02-0.04,0.06-0.08,0.12-0.08c0.01,0,0.01,0,0.02,0c0.03,0.01,0.05,0.02,0.07,0.03  c0.07,0.06,0.13,0.13,0.17,0.22c0.02-0.06,0.04-0.13,0.06-0.19c-0.01,0-0.01,0-0.02-0.01c-0.18-0.09-0.23-0.31-0.24-0.44  c-0.01-0.06-0.01-0.12,0.01-0.18c0.02-0.07,0.07-0.13,0.13-0.15c0.02-0.01,0.05-0.01,0.07-0.01c0.08,0,0.15,0.05,0.2,0.1  c0.03,0.04,0.06,0.08,0.08,0.12c0.04-0.09,0.09-0.19,0.13-0.28c-0.01-0.01-0.02-0.02-0.03-0.03c-0.09-0.11-0.14-0.25-0.15-0.39  c-0.01,0.01-0.01,0.02-0.02,0.04C15.23,15.27,15.15,15.32,15.03,15.35z M16.53,14.13c0.05-0.04,0.1-0.08,0.16-0.12  c0.01-0.01,0.03-0.02,0.04-0.03c0,0,0,0,0-0.01c-0.03-0.05-0.07-0.11-0.09-0.18C16.6,13.92,16.57,14.03,16.53,14.13z"
     id="path1" /></svg>
